<mxfile host="65bd71144e">
    <diagram id="vxJT3b-RhDILSu0iPSrk" name="概要図">
        <mxGraphModel dx="1384" dy="827" grid="1" gridSize="10" guides="1" tooltips="1" connect="1" arrows="1" fold="1" page="1" pageScale="1" pageWidth="1169" pageHeight="827" math="0" shadow="0">
            <root>
                <mxCell id="0"/>
                <mxCell id="1" parent="0"/>
                <mxCell id="69" value="" style="verticalLabelPosition=bottom;verticalAlign=top;html=1;shape=mxgraph.basic.rect;fillColor2=none;strokeWidth=1;size=20;indent=5;dashed=1;strokeColor=none;" parent="1" vertex="1">
                    <mxGeometry x="20" y="100" width="1030" height="410" as="geometry"/>
                </mxCell>
                <mxCell id="3" value="" style="verticalLabelPosition=bottom;verticalAlign=top;html=1;shape=mxgraph.basic.rect;fillColor2=none;strokeWidth=1;size=20;indent=5;dashed=1;fillColor=#d5e8d4;strokeColor=#82b366;" parent="1" vertex="1">
                    <mxGeometry x="199" y="110" width="221" height="200" as="geometry"/>
                </mxCell>
                <mxCell id="4" value="Infrastructure" style="text;html=1;strokeColor=none;fillColor=none;align=center;verticalAlign=middle;whiteSpace=wrap;rounded=0;dashed=1;container=0;fontColor=#21781B;labelBackgroundColor=none;" parent="1" vertex="1">
                    <mxGeometry x="279.5" y="110" width="60" height="30" as="geometry"/>
                </mxCell>
                <mxCell id="2" value="DataStore" style="html=1;" parent="1" vertex="1">
                    <mxGeometry x="216.5" y="260" width="85" height="30" as="geometry"/>
                </mxCell>
                <mxCell id="6" value="Network" style="html=1;" parent="1" vertex="1">
                    <mxGeometry x="216.5" y="153.25" width="85" height="30" as="geometry"/>
                </mxCell>
                <mxCell id="7" value="Device" style="html=1;" parent="1" vertex="1">
                    <mxGeometry x="320" y="195" width="85" height="30" as="geometry"/>
                </mxCell>
                <mxCell id="9" value="" style="aspect=fixed;perimeter=ellipsePerimeter;html=1;align=center;shadow=0;dashed=0;spacingTop=3;image;image=img/lib/active_directory/modem.svg;" parent="1" vertex="1">
                    <mxGeometry x="100" y="153.25" width="50" height="41.5" as="geometry"/>
                </mxCell>
                <mxCell id="23" style="edgeStyle=none;html=1;exitX=1;exitY=0.25;exitDx=0;exitDy=0;entryX=0;entryY=0.5;entryDx=0;entryDy=0;" parent="1" source="10" target="12" edge="1">
                    <mxGeometry relative="1" as="geometry"/>
                </mxCell>
                <mxCell id="24" style="edgeStyle=none;html=1;exitX=1;exitY=0.75;exitDx=0;exitDy=0;entryX=0;entryY=0.5;entryDx=0;entryDy=0;" parent="1" source="10" target="11" edge="1">
                    <mxGeometry relative="1" as="geometry"/>
                </mxCell>
                <mxCell id="10" value="" style="aspect=fixed;perimeter=ellipsePerimeter;html=1;align=center;shadow=0;dashed=0;spacingTop=3;image;image=img/lib/active_directory/laptop_client.svg;" parent="1" vertex="1">
                    <mxGeometry x="30" y="340" width="45" height="50" as="geometry"/>
                </mxCell>
                <mxCell id="11" value="" style="aspect=fixed;perimeter=ellipsePerimeter;html=1;align=center;shadow=0;dashed=0;spacingTop=3;image;image=img/lib/active_directory/home_page.svg;" parent="1" vertex="1">
                    <mxGeometry x="115" y="380" width="50" height="45" as="geometry"/>
                </mxCell>
                <mxCell id="12" value="" style="aspect=fixed;perimeter=ellipsePerimeter;html=1;align=center;shadow=0;dashed=0;spacingTop=3;image;image=img/lib/active_directory/databases.svg;" parent="1" vertex="1">
                    <mxGeometry x="105" y="310" width="50" height="49" as="geometry"/>
                </mxCell>
                <mxCell id="13" value="" style="verticalLabelPosition=bottom;verticalAlign=top;html=1;shape=mxgraph.basic.rect;fillColor2=none;strokeWidth=1;size=20;indent=5;dashed=1;fillColor=#d5e8d4;strokeColor=#82b366;" parent="1" vertex="1">
                    <mxGeometry x="199" y="330" width="221" height="170" as="geometry"/>
                </mxCell>
                <mxCell id="14" value="Application" style="text;html=1;strokeColor=none;fillColor=none;align=center;verticalAlign=middle;whiteSpace=wrap;rounded=0;dashed=1;container=0;fontColor=#21781B;labelBackgroundColor=none;" parent="1" vertex="1">
                    <mxGeometry x="279.5" y="330" width="60" height="30" as="geometry"/>
                </mxCell>
                <mxCell id="16" value="XxxView" style="html=1;" parent="1" vertex="1">
                    <mxGeometry x="216.5" y="360" width="85" height="30" as="geometry"/>
                </mxCell>
                <mxCell id="17" value="XxxViewModel" style="html=1;" parent="1" vertex="1">
                    <mxGeometry x="260" y="410" width="121" height="30" as="geometry"/>
                </mxCell>
                <mxCell id="18" value="XxxModel" style="html=1;" parent="1" vertex="1">
                    <mxGeometry x="320" y="455" width="85" height="30" as="geometry"/>
                </mxCell>
                <mxCell id="19" value="target device" style="text;html=1;strokeColor=none;fillColor=none;align=center;verticalAlign=middle;whiteSpace=wrap;rounded=0;dashed=1;container=0;" parent="1" vertex="1">
                    <mxGeometry x="80" y="194.75" width="75" height="30" as="geometry"/>
                </mxCell>
                <mxCell id="20" value="strage&lt;span style=&quot;color: rgba(0, 0, 0, 0); font-family: monospace; font-size: 0px; text-align: start;&quot;&gt;%3CmxGraphModel%3E%3Croot%3E%3CmxCell%20id%3D%220%22%2F%3E%3CmxCell%20id%3D%221%22%20parent%3D%220%22%2F%3E%3CmxCell%20id%3D%222%22%20value%3D%22target%20device%22%20style%3D%22text%3Bhtml%3D1%3BstrokeColor%3Dnone%3BfillColor%3Dnone%3Balign%3Dcenter%3BverticalAlign%3Dmiddle%3BwhiteSpace%3Dwrap%3Brounded%3D0%3Bdashed%3D1%3Bcontainer%3D0%3B%22%20vertex%3D%221%22%20parent%3D%221%22%3E%3CmxGeometry%20x%3D%2280%22%20y%3D%22194.75%22%20width%3D%2275%22%20height%3D%2230%22%20as%3D%22geometry%22%2F%3E%3C%2FmxCell%3E%3C%2Froot%3E%3C%2FmxGraphModel%3E&lt;/span&gt;" style="text;html=1;strokeColor=none;fillColor=none;align=center;verticalAlign=middle;whiteSpace=wrap;rounded=0;dashed=1;container=0;" parent="1" vertex="1">
                    <mxGeometry x="92.5" y="280" width="75" height="30" as="geometry"/>
                </mxCell>
                <mxCell id="21" value="GUI" style="text;html=1;strokeColor=none;fillColor=none;align=center;verticalAlign=middle;whiteSpace=wrap;rounded=0;dashed=1;container=0;" parent="1" vertex="1">
                    <mxGeometry x="92.5" y="425" width="75" height="30" as="geometry"/>
                </mxCell>
                <mxCell id="25" value="" style="verticalLabelPosition=bottom;verticalAlign=top;html=1;shape=mxgraph.basic.rect;fillColor2=none;strokeWidth=1;size=20;indent=5;dashed=1;fillColor=#d5e8d4;strokeColor=#82b366;" parent="1" vertex="1">
                    <mxGeometry x="430" y="109.75" width="170" height="390.25" as="geometry"/>
                </mxCell>
                <mxCell id="26" value="Usecase" style="text;html=1;strokeColor=none;fillColor=none;align=center;verticalAlign=middle;whiteSpace=wrap;rounded=0;dashed=1;container=0;fontColor=#21781B;labelBackgroundColor=none;" parent="1" vertex="1">
                    <mxGeometry x="485" y="109.75" width="60" height="30" as="geometry"/>
                </mxCell>
                <mxCell id="27" value="XxxViewUsecase" style="html=1;" parent="1" vertex="1">
                    <mxGeometry x="447.75" y="400" width="134.5" height="30" as="geometry"/>
                </mxCell>
                <mxCell id="28" value="GetUsecase&lt;br&gt;or Post&lt;br&gt;or Notify" style="html=1;" parent="1" vertex="1">
                    <mxGeometry x="472.5" y="143.38" width="85" height="61.25" as="geometry"/>
                </mxCell>
                <mxCell id="29" value="SaveUsecase&lt;br&gt;or Open" style="html=1;" parent="1" vertex="1">
                    <mxGeometry x="472.5" y="260" width="85" height="50" as="geometry"/>
                </mxCell>
                <mxCell id="30" value="" style="verticalLabelPosition=bottom;verticalAlign=top;html=1;shape=mxgraph.basic.rect;fillColor2=none;strokeWidth=1;size=20;indent=5;dashed=1;fillColor=#d5e8d4;strokeColor=#82b366;" parent="1" vertex="1">
                    <mxGeometry x="609" y="110" width="170" height="390.25" as="geometry"/>
                </mxCell>
                <mxCell id="31" value="Repository" style="text;html=1;strokeColor=none;fillColor=none;align=center;verticalAlign=middle;whiteSpace=wrap;rounded=0;dashed=1;container=0;fontColor=#21781B;labelBackgroundColor=none;" parent="1" vertex="1">
                    <mxGeometry x="664" y="110" width="60" height="30" as="geometry"/>
                </mxCell>
                <mxCell id="32" value="XxxRepository" style="html=1;" parent="1" vertex="1">
                    <mxGeometry x="626.75" y="360" width="134.5" height="30" as="geometry"/>
                </mxCell>
                <mxCell id="36" value="AaaaRepository" style="html=1;" parent="1" vertex="1">
                    <mxGeometry x="626.75" y="195" width="134.5" height="30" as="geometry"/>
                </mxCell>
                <mxCell id="37" value="" style="verticalLabelPosition=bottom;verticalAlign=top;html=1;shape=mxgraph.basic.rect;fillColor2=none;strokeWidth=1;size=20;indent=5;dashed=1;fillColor=#d5e8d4;strokeColor=#82b366;" parent="1" vertex="1">
                    <mxGeometry x="790" y="109.88" width="250" height="390.25" as="geometry"/>
                </mxCell>
                <mxCell id="38" value="Entity" style="text;html=1;strokeColor=none;fillColor=none;align=center;verticalAlign=middle;whiteSpace=wrap;rounded=0;dashed=1;container=0;fontColor=#21781B;labelBackgroundColor=none;" parent="1" vertex="1">
                    <mxGeometry x="885" y="109.75" width="60" height="30" as="geometry"/>
                </mxCell>
                <mxCell id="39" value="XxxEntity" style="html=1;" parent="1" vertex="1">
                    <mxGeometry x="807.75" y="360" width="134.5" height="30" as="geometry"/>
                </mxCell>
                <mxCell id="40" value="AaaaEntity" style="html=1;" parent="1" vertex="1">
                    <mxGeometry x="807.75" y="194.88" width="134.5" height="30" as="geometry"/>
                </mxCell>
                <mxCell id="41" value="XxxValueObject" style="html=1;" parent="1" vertex="1">
                    <mxGeometry x="910" y="420" width="105" height="30" as="geometry"/>
                </mxCell>
                <mxCell id="42" value="AaaValueObject" style="html=1;" parent="1" vertex="1">
                    <mxGeometry x="905" y="250" width="105" height="30" as="geometry"/>
                </mxCell>
                <mxCell id="43" value="BbbValueObject" style="html=1;" parent="1" vertex="1">
                    <mxGeometry x="840" y="300" width="105" height="30" as="geometry"/>
                </mxCell>
                <mxCell id="45" value="" style="endArrow=diamondThin;endFill=0;endSize=24;html=1;fontColor=#21781B;entryX=1;entryY=0.5;entryDx=0;entryDy=0;exitX=0.75;exitY=0;exitDx=0;exitDy=0;edgeStyle=orthogonalEdgeStyle;" parent="1" source="42" target="40" edge="1">
                    <mxGeometry width="160" relative="1" as="geometry">
                        <mxPoint x="890" y="173.5" as="sourcePoint"/>
                        <mxPoint x="1050" y="173.5" as="targetPoint"/>
                    </mxGeometry>
                </mxCell>
                <mxCell id="46" value="" style="endArrow=diamondThin;endFill=0;endSize=24;html=1;fontColor=#21781B;entryX=0.5;entryY=1;entryDx=0;entryDy=0;exitX=0.5;exitY=0;exitDx=0;exitDy=0;edgeStyle=orthogonalEdgeStyle;" parent="1" source="43" target="40" edge="1">
                    <mxGeometry width="160" relative="1" as="geometry">
                        <mxPoint x="581.5" y="310.12" as="sourcePoint"/>
                        <mxPoint x="540" y="270" as="targetPoint"/>
                    </mxGeometry>
                </mxCell>
                <mxCell id="47" value="" style="endArrow=diamondThin;endFill=0;endSize=24;html=1;fontColor=#21781B;entryX=1;entryY=0.5;entryDx=0;entryDy=0;exitX=0.75;exitY=0;exitDx=0;exitDy=0;edgeStyle=orthogonalEdgeStyle;" parent="1" source="41" target="39" edge="1">
                    <mxGeometry width="160" relative="1" as="geometry">
                        <mxPoint x="581.5" y="310.12" as="sourcePoint"/>
                        <mxPoint x="540" y="270" as="targetPoint"/>
                    </mxGeometry>
                </mxCell>
                <mxCell id="48" value="" style="endArrow=diamondThin;endFill=0;endSize=24;html=1;fontColor=#21781B;entryX=1;entryY=0.5;entryDx=0;entryDy=0;exitX=0;exitY=0.5;exitDx=0;exitDy=0;" parent="1" source="40" target="36" edge="1">
                    <mxGeometry width="160" relative="1" as="geometry">
                        <mxPoint x="741.5" y="330.12" as="sourcePoint"/>
                        <mxPoint x="700" y="290" as="targetPoint"/>
                    </mxGeometry>
                </mxCell>
                <mxCell id="49" value="" style="endArrow=diamondThin;endFill=0;endSize=24;html=1;fontColor=#21781B;entryX=1;entryY=0.5;entryDx=0;entryDy=0;exitX=0;exitY=0.5;exitDx=0;exitDy=0;" parent="1" source="39" target="32" edge="1">
                    <mxGeometry width="160" relative="1" as="geometry">
                        <mxPoint x="817.75" y="219.88" as="sourcePoint"/>
                        <mxPoint x="771.25" y="220" as="targetPoint"/>
                    </mxGeometry>
                </mxCell>
                <mxCell id="50" value="" style="endArrow=diamondThin;endFill=0;endSize=24;html=1;fontColor=#21781B;entryX=1;entryY=0.25;entryDx=0;entryDy=0;exitX=0.25;exitY=0;exitDx=0;exitDy=0;edgeStyle=orthogonalEdgeStyle;" parent="1" source="36" target="28" edge="1">
                    <mxGeometry width="160" relative="1" as="geometry">
                        <mxPoint x="581.5" y="310.12" as="sourcePoint"/>
                        <mxPoint x="540" y="270" as="targetPoint"/>
                    </mxGeometry>
                </mxCell>
                <mxCell id="51" value="" style="endArrow=diamondThin;endFill=0;endSize=24;html=1;fontColor=#21781B;entryX=1;entryY=0.75;entryDx=0;entryDy=0;exitX=0;exitY=0.25;exitDx=0;exitDy=0;edgeStyle=orthogonalEdgeStyle;" parent="1" source="32" target="29" edge="1">
                    <mxGeometry width="160" relative="1" as="geometry">
                        <mxPoint x="670.375" y="205" as="sourcePoint"/>
                        <mxPoint x="567.5" y="168.6925" as="targetPoint"/>
                    </mxGeometry>
                </mxCell>
                <mxCell id="52" value="" style="endArrow=diamondThin;endFill=0;endSize=24;html=1;fontColor=#21781B;entryX=1;entryY=0.5;entryDx=0;entryDy=0;exitX=0.25;exitY=1;exitDx=0;exitDy=0;edgeStyle=orthogonalEdgeStyle;" parent="1" source="32" target="27" edge="1">
                    <mxGeometry width="160" relative="1" as="geometry">
                        <mxPoint x="670.375" y="370" as="sourcePoint"/>
                        <mxPoint x="567.5" y="307.5" as="targetPoint"/>
                    </mxGeometry>
                </mxCell>
                <mxCell id="53" value="" style="endArrow=diamondThin;endFill=0;endSize=24;html=1;fontColor=#21781B;entryX=0.75;entryY=1;entryDx=0;entryDy=0;exitX=0.25;exitY=0;exitDx=0;exitDy=0;edgeStyle=orthogonalEdgeStyle;" parent="1" source="32" target="28" edge="1">
                    <mxGeometry width="160" relative="1" as="geometry">
                        <mxPoint x="581.5" y="310.12" as="sourcePoint"/>
                        <mxPoint x="540" y="270" as="targetPoint"/>
                        <Array as="points">
                            <mxPoint x="660" y="250"/>
                            <mxPoint x="536" y="250"/>
                        </Array>
                    </mxGeometry>
                </mxCell>
                <mxCell id="54" value="" style="endArrow=diamondThin;endFill=0;endSize=24;html=1;fontColor=#21781B;entryX=1;entryY=0.25;entryDx=0;entryDy=0;exitX=0.5;exitY=1;exitDx=0;exitDy=0;edgeStyle=orthogonalEdgeStyle;" parent="1" source="36" target="29" edge="1">
                    <mxGeometry width="160" relative="1" as="geometry">
                        <mxPoint x="581.5" y="310.12" as="sourcePoint"/>
                        <mxPoint x="540" y="270" as="targetPoint"/>
                    </mxGeometry>
                </mxCell>
                <mxCell id="56" value="" style="endArrow=open;endFill=1;endSize=12;html=1;fontColor=#21781B;exitX=0.25;exitY=1;exitDx=0;exitDy=0;edgeStyle=orthogonalEdgeStyle;entryX=0;entryY=0.5;entryDx=0;entryDy=0;" parent="1" source="17" target="18" edge="1">
                    <mxGeometry width="160" relative="1" as="geometry">
                        <mxPoint x="150" y="470" as="sourcePoint"/>
                        <mxPoint x="310" y="470" as="targetPoint"/>
                    </mxGeometry>
                </mxCell>
                <mxCell id="57" value="" style="endArrow=open;endFill=1;endSize=12;html=1;fontColor=#21781B;exitX=0.25;exitY=1;exitDx=0;exitDy=0;edgeStyle=orthogonalEdgeStyle;entryX=0;entryY=0.5;entryDx=0;entryDy=0;" parent="1" source="16" target="17" edge="1">
                    <mxGeometry width="160" relative="1" as="geometry">
                        <mxPoint x="280.25" y="450" as="sourcePoint"/>
                        <mxPoint x="300" y="480" as="targetPoint"/>
                    </mxGeometry>
                </mxCell>
                <mxCell id="58" value="" style="endArrow=open;endFill=1;endSize=12;html=1;fontColor=#21781B;edgeStyle=orthogonalEdgeStyle;entryX=1;entryY=0.5;entryDx=0;entryDy=0;exitX=0;exitY=0.5;exitDx=0;exitDy=0;" parent="1" source="29" target="2" edge="1">
                    <mxGeometry width="160" relative="1" as="geometry">
                        <mxPoint x="310.25" y="450" as="sourcePoint"/>
                        <mxPoint x="330" y="480" as="targetPoint"/>
                        <Array as="points"/>
                    </mxGeometry>
                </mxCell>
                <mxCell id="59" value="" style="endArrow=open;endFill=1;endSize=12;html=1;fontColor=#21781B;edgeStyle=orthogonalEdgeStyle;entryX=1;entryY=0.5;entryDx=0;entryDy=0;exitX=0;exitY=0.5;exitDx=0;exitDy=0;" parent="1" source="28" target="7" edge="1">
                    <mxGeometry width="160" relative="1" as="geometry">
                        <mxPoint x="482.5" y="295" as="sourcePoint"/>
                        <mxPoint x="311.5" y="285" as="targetPoint"/>
                        <Array as="points"/>
                    </mxGeometry>
                </mxCell>
                <mxCell id="60" value="" style="endArrow=open;endFill=1;endSize=12;html=1;fontColor=#21781B;edgeStyle=orthogonalEdgeStyle;exitX=0;exitY=0.5;exitDx=0;exitDy=0;entryX=0.5;entryY=1;entryDx=0;entryDy=0;" parent="1" source="7" target="6" edge="1">
                    <mxGeometry width="160" relative="1" as="geometry">
                        <mxPoint x="482.5" y="184.005" as="sourcePoint"/>
                        <mxPoint x="415" y="220" as="targetPoint"/>
                        <Array as="points"/>
                    </mxGeometry>
                </mxCell>
                <mxCell id="62" value="" style="endArrow=open;endFill=1;endSize=12;html=1;fontColor=#21781B;edgeStyle=orthogonalEdgeStyle;exitX=0;exitY=0.5;exitDx=0;exitDy=0;entryX=1;entryY=0;entryDx=0;entryDy=0;" parent="1" source="6" target="9" edge="1">
                    <mxGeometry width="160" relative="1" as="geometry">
                        <mxPoint x="330" y="220" as="sourcePoint"/>
                        <mxPoint x="269" y="193.25" as="targetPoint"/>
                    </mxGeometry>
                </mxCell>
                <mxCell id="64" value="" style="endArrow=open;endFill=1;endSize=12;html=1;fontColor=#21781B;edgeStyle=orthogonalEdgeStyle;exitX=0;exitY=0.5;exitDx=0;exitDy=0;entryX=1;entryY=0.5;entryDx=0;entryDy=0;" parent="1" source="2" target="12" edge="1">
                    <mxGeometry width="160" relative="1" as="geometry">
                        <mxPoint x="226.5" y="178.25" as="sourcePoint"/>
                        <mxPoint x="152.9999770068664" y="169.60001839450683" as="targetPoint"/>
                    </mxGeometry>
                </mxCell>
                <mxCell id="65" value="" style="endArrow=open;endFill=1;endSize=12;html=1;fontColor=#21781B;edgeStyle=orthogonalEdgeStyle;exitX=1;exitY=0.5;exitDx=0;exitDy=0;entryX=0;entryY=0.5;entryDx=0;entryDy=0;" parent="1" source="11" target="16" edge="1">
                    <mxGeometry width="160" relative="1" as="geometry">
                        <mxPoint x="226.5" y="285" as="sourcePoint"/>
                        <mxPoint x="165" y="344.5" as="targetPoint"/>
                    </mxGeometry>
                </mxCell>
                <mxCell id="66" value="" style="endArrow=open;endFill=1;endSize=12;html=1;fontColor=#21781B;edgeStyle=orthogonalEdgeStyle;entryX=0.25;entryY=1;entryDx=0;entryDy=0;exitX=1;exitY=0.25;exitDx=0;exitDy=0;" parent="1" source="18" target="29" edge="1">
                    <mxGeometry width="160" relative="1" as="geometry">
                        <mxPoint x="482.5" y="295" as="sourcePoint"/>
                        <mxPoint x="311.5" y="285" as="targetPoint"/>
                        <Array as="points">
                            <mxPoint x="440" y="463"/>
                            <mxPoint x="440" y="340"/>
                            <mxPoint x="494" y="340"/>
                        </Array>
                    </mxGeometry>
                </mxCell>
                <mxCell id="67" value="" style="endArrow=open;endFill=1;endSize=12;html=1;fontColor=#21781B;edgeStyle=orthogonalEdgeStyle;entryX=0.18;entryY=0.994;entryDx=0;entryDy=0;exitX=0.873;exitY=-0.159;exitDx=0;exitDy=0;exitPerimeter=0;entryPerimeter=0;" parent="1" source="18" target="28" edge="1">
                    <mxGeometry width="160" relative="1" as="geometry">
                        <mxPoint x="415" y="472.5" as="sourcePoint"/>
                        <mxPoint x="503.75" y="320" as="targetPoint"/>
                        <Array as="points">
                            <mxPoint x="393" y="450"/>
                            <mxPoint x="393" y="320"/>
                            <mxPoint x="440" y="320"/>
                            <mxPoint x="440" y="230"/>
                            <mxPoint x="488" y="230"/>
                        </Array>
                    </mxGeometry>
                </mxCell>
                <mxCell id="68" value="" style="endArrow=open;endFill=1;endSize=12;html=1;fontColor=#21781B;edgeStyle=orthogonalEdgeStyle;entryX=0.25;entryY=1;entryDx=0;entryDy=0;exitX=1;exitY=0.75;exitDx=0;exitDy=0;" parent="1" source="18" target="27" edge="1">
                    <mxGeometry width="160" relative="1" as="geometry">
                        <mxPoint x="415" y="472.5" as="sourcePoint"/>
                        <mxPoint x="503.75" y="320" as="targetPoint"/>
                    </mxGeometry>
                </mxCell>
            </root>
        </mxGraphModel>
    </diagram>
    <diagram id="0ROiiAOncyj6y9GTaKI6" name="コンポーネント図">
        <mxGraphModel dx="1384" dy="827" grid="1" gridSize="10" guides="1" tooltips="1" connect="1" arrows="1" fold="1" page="1" pageScale="1" pageWidth="1169" pageHeight="827" math="0" shadow="0">
            <root>
                <mxCell id="0"/>
                <mxCell id="1" parent="0"/>
                <mxCell id="ePc4sAz220NZ56gBjfFg-1" value="コンポーネント図" style="shape=umlFrame;whiteSpace=wrap;html=1;swimlaneFillColor=default;width=130;height=25;" parent="1" vertex="1">
                    <mxGeometry x="360" y="60" width="630" height="530" as="geometry"/>
                </mxCell>
                <mxCell id="mIlmoF9bP5TnxBC6kT-x-3" value="Entity" style="html=1;dropTarget=0;" parent="1" vertex="1">
                    <mxGeometry x="500" y="519" width="120" height="51" as="geometry"/>
                </mxCell>
                <mxCell id="mIlmoF9bP5TnxBC6kT-x-4" value="" style="shape=module;jettyWidth=8;jettyHeight=4;" parent="mIlmoF9bP5TnxBC6kT-x-3" vertex="1">
                    <mxGeometry x="1" width="20" height="20" relative="1" as="geometry">
                        <mxPoint x="-27" y="7" as="offset"/>
                    </mxGeometry>
                </mxCell>
                <mxCell id="mIlmoF9bP5TnxBC6kT-x-24" style="edgeStyle=none;html=1;" parent="1" source="mIlmoF9bP5TnxBC6kT-x-5" target="mIlmoF9bP5TnxBC6kT-x-3" edge="1">
                    <mxGeometry relative="1" as="geometry"/>
                </mxCell>
                <mxCell id="mIlmoF9bP5TnxBC6kT-x-5" value="Repository&lt;span style=&quot;color: rgba(0, 0, 0, 0); font-family: monospace; font-size: 0px; text-align: start;&quot;&gt;%3CmxGraphModel%3E%3Croot%3E%3CmxCell%20id%3D%220%22%2F%3E%3CmxCell%20id%3D%221%22%20parent%3D%220%22%2F%3E%3CmxCell%20id%3D%222%22%20value%3D%22Entity%22%20style%3D%22html%3D1%3BdropTarget%3D0%3B%22%20vertex%3D%221%22%20parent%3D%221%22%3E%3CmxGeometry%20x%3D%22500%22%20y%3D%22369%22%20width%3D%22120%22%20height%3D%2251%22%20as%3D%22geometry%22%2F%3E%3C%2FmxCell%3E%3CmxCell%20id%3D%223%22%20value%3D%22%22%20style%3D%22shape%3Dmodule%3BjettyWidth%3D8%3BjettyHeight%3D4%3B%22%20vertex%3D%221%22%20parent%3D%222%22%3E%3CmxGeometry%20x%3D%221%22%20width%3D%2220%22%20height%3D%2220%22%20relative%3D%221%22%20as%3D%22geometry%22%3E%3CmxPoint%20x%3D%22-27%22%20y%3D%227%22%20as%3D%22offset%22%2F%3E%3C%2FmxGeometry%3E%3C%2FmxCell%3E%3C%2Froot%3E%3C%2FmxGraphModel%3E&lt;/span&gt;" style="html=1;dropTarget=0;" parent="1" vertex="1">
                    <mxGeometry x="500" y="440" width="120" height="51" as="geometry"/>
                </mxCell>
                <mxCell id="mIlmoF9bP5TnxBC6kT-x-6" value="" style="shape=module;jettyWidth=8;jettyHeight=4;" parent="mIlmoF9bP5TnxBC6kT-x-5" vertex="1">
                    <mxGeometry x="1" width="20" height="20" relative="1" as="geometry">
                        <mxPoint x="-27" y="7" as="offset"/>
                    </mxGeometry>
                </mxCell>
                <mxCell id="mIlmoF9bP5TnxBC6kT-x-23" style="edgeStyle=none;html=1;" parent="1" source="mIlmoF9bP5TnxBC6kT-x-7" target="mIlmoF9bP5TnxBC6kT-x-5" edge="1">
                    <mxGeometry relative="1" as="geometry"/>
                </mxCell>
                <mxCell id="mIlmoF9bP5TnxBC6kT-x-7" value="Usecase" style="html=1;dropTarget=0;" parent="1" vertex="1">
                    <mxGeometry x="500" y="370" width="120" height="51" as="geometry"/>
                </mxCell>
                <mxCell id="mIlmoF9bP5TnxBC6kT-x-8" value="" style="shape=module;jettyWidth=8;jettyHeight=4;" parent="mIlmoF9bP5TnxBC6kT-x-7" vertex="1">
                    <mxGeometry x="1" width="20" height="20" relative="1" as="geometry">
                        <mxPoint x="-27" y="7" as="offset"/>
                    </mxGeometry>
                </mxCell>
                <mxCell id="mIlmoF9bP5TnxBC6kT-x-19" style="edgeStyle=none;html=1;" parent="1" source="mIlmoF9bP5TnxBC6kT-x-9" target="mIlmoF9bP5TnxBC6kT-x-7" edge="1">
                    <mxGeometry relative="1" as="geometry"/>
                </mxCell>
                <mxCell id="mIlmoF9bP5TnxBC6kT-x-32" style="edgeStyle=none;html=1;" parent="1" source="mIlmoF9bP5TnxBC6kT-x-9" target="mIlmoF9bP5TnxBC6kT-x-26" edge="1">
                    <mxGeometry relative="1" as="geometry"/>
                </mxCell>
                <mxCell id="mIlmoF9bP5TnxBC6kT-x-9" value="App" style="html=1;dropTarget=0;" parent="1" vertex="1">
                    <mxGeometry x="380" y="240" width="120" height="51" as="geometry"/>
                </mxCell>
                <mxCell id="mIlmoF9bP5TnxBC6kT-x-10" value="" style="shape=module;jettyWidth=8;jettyHeight=4;" parent="mIlmoF9bP5TnxBC6kT-x-9" vertex="1">
                    <mxGeometry x="1" width="20" height="20" relative="1" as="geometry">
                        <mxPoint x="-27" y="7" as="offset"/>
                    </mxGeometry>
                </mxCell>
                <mxCell id="mIlmoF9bP5TnxBC6kT-x-11" value="Infrastructure" style="shape=folder;fontStyle=1;tabWidth=110;tabHeight=30;tabPosition=left;html=1;boundedLbl=1;labelInHeader=1;container=1;collapsible=0;" parent="1" vertex="1">
                    <mxGeometry x="530" y="200" width="450" height="140" as="geometry"/>
                </mxCell>
                <mxCell id="mIlmoF9bP5TnxBC6kT-x-12" value="" style="html=1;strokeColor=none;resizeWidth=1;resizeHeight=1;fillColor=none;part=1;connectable=0;allowArrows=0;deletable=0;" parent="mIlmoF9bP5TnxBC6kT-x-11" vertex="1">
                    <mxGeometry width="450" height="98" relative="1" as="geometry">
                        <mxPoint y="30" as="offset"/>
                    </mxGeometry>
                </mxCell>
                <mxCell id="mIlmoF9bP5TnxBC6kT-x-17" value="Network" style="html=1;dropTarget=0;" parent="mIlmoF9bP5TnxBC6kT-x-11" vertex="1">
                    <mxGeometry x="180" y="70.78" width="100" height="39.67" as="geometry"/>
                </mxCell>
                <mxCell id="mIlmoF9bP5TnxBC6kT-x-18" value="" style="shape=module;jettyWidth=8;jettyHeight=4;" parent="mIlmoF9bP5TnxBC6kT-x-17" vertex="1">
                    <mxGeometry x="1" width="20" height="20" relative="1" as="geometry">
                        <mxPoint x="-27" y="7" as="offset"/>
                    </mxGeometry>
                </mxCell>
                <mxCell id="mIlmoF9bP5TnxBC6kT-x-20" style="edgeStyle=none;html=1;" parent="mIlmoF9bP5TnxBC6kT-x-11" source="mIlmoF9bP5TnxBC6kT-x-15" target="mIlmoF9bP5TnxBC6kT-x-17" edge="1">
                    <mxGeometry relative="1" as="geometry"/>
                </mxCell>
                <mxCell id="mIlmoF9bP5TnxBC6kT-x-15" value="Device" style="html=1;dropTarget=0;" parent="mIlmoF9bP5TnxBC6kT-x-11" vertex="1">
                    <mxGeometry x="20.000000000000128" y="70" width="131.25375" height="39.666666666666664" as="geometry"/>
                </mxCell>
                <mxCell id="mIlmoF9bP5TnxBC6kT-x-16" value="" style="shape=module;jettyWidth=8;jettyHeight=4;" parent="mIlmoF9bP5TnxBC6kT-x-15" vertex="1">
                    <mxGeometry x="1" width="20" height="20" relative="1" as="geometry">
                        <mxPoint x="-27" y="7" as="offset"/>
                    </mxGeometry>
                </mxCell>
                <mxCell id="mIlmoF9bP5TnxBC6kT-x-13" value="DataStore" style="html=1;dropTarget=0;" parent="mIlmoF9bP5TnxBC6kT-x-11" vertex="1">
                    <mxGeometry x="310" y="70.78" width="110" height="39.67" as="geometry"/>
                </mxCell>
                <mxCell id="mIlmoF9bP5TnxBC6kT-x-14" value="" style="shape=module;jettyWidth=8;jettyHeight=4;" parent="mIlmoF9bP5TnxBC6kT-x-13" vertex="1">
                    <mxGeometry x="1" width="20" height="20" relative="1" as="geometry">
                        <mxPoint x="-27" y="7" as="offset"/>
                    </mxGeometry>
                </mxCell>
                <mxCell id="mIlmoF9bP5TnxBC6kT-x-21" style="edgeStyle=none;html=1;" parent="1" source="mIlmoF9bP5TnxBC6kT-x-13" target="mIlmoF9bP5TnxBC6kT-x-7" edge="1">
                    <mxGeometry relative="1" as="geometry"/>
                </mxCell>
                <mxCell id="mIlmoF9bP5TnxBC6kT-x-22" style="edgeStyle=none;html=1;" parent="1" source="mIlmoF9bP5TnxBC6kT-x-15" target="mIlmoF9bP5TnxBC6kT-x-7" edge="1">
                    <mxGeometry relative="1" as="geometry"/>
                </mxCell>
                <mxCell id="mIlmoF9bP5TnxBC6kT-x-25" value="" style="aspect=fixed;perimeter=ellipsePerimeter;html=1;align=center;shadow=0;dashed=0;spacingTop=3;image;image=img/lib/active_directory/vista_client.svg;" parent="1" vertex="1">
                    <mxGeometry x="547" y="80" width="38" height="50" as="geometry"/>
                </mxCell>
                <mxCell id="mIlmoF9bP5TnxBC6kT-x-37" style="edgeStyle=none;html=1;endArrow=diamond;endFill=1;" parent="1" source="mIlmoF9bP5TnxBC6kT-x-26" target="mIlmoF9bP5TnxBC6kT-x-25" edge="1">
                    <mxGeometry relative="1" as="geometry"/>
                </mxCell>
                <mxCell id="mIlmoF9bP5TnxBC6kT-x-26" value="" style="aspect=fixed;perimeter=ellipsePerimeter;html=1;align=center;shadow=0;dashed=0;spacingTop=3;image;image=img/lib/active_directory/home_page.svg;" parent="1" vertex="1">
                    <mxGeometry x="415" y="150" width="50" height="45" as="geometry"/>
                </mxCell>
                <mxCell id="mIlmoF9bP5TnxBC6kT-x-38" style="edgeStyle=none;html=1;endArrow=diamond;endFill=1;" parent="1" source="mIlmoF9bP5TnxBC6kT-x-27" target="mIlmoF9bP5TnxBC6kT-x-25" edge="1">
                    <mxGeometry relative="1" as="geometry">
                        <Array as="points">
                            <mxPoint x="790" y="105"/>
                        </Array>
                    </mxGeometry>
                </mxCell>
                <mxCell id="mIlmoF9bP5TnxBC6kT-x-27" value="" style="aspect=fixed;perimeter=ellipsePerimeter;html=1;align=center;shadow=0;dashed=0;spacingTop=3;image;image=img/lib/active_directory/databases.svg;" parent="1" vertex="1">
                    <mxGeometry x="860" y="148" width="50" height="49" as="geometry"/>
                </mxCell>
                <mxCell id="mIlmoF9bP5TnxBC6kT-x-29" value="" style="aspect=fixed;perimeter=ellipsePerimeter;html=1;align=center;shadow=0;dashed=0;spacingTop=3;image;image=img/lib/active_directory/modem.svg;" parent="1" vertex="1">
                    <mxGeometry x="660" y="150" width="50" height="41.5" as="geometry"/>
                </mxCell>
                <mxCell id="mIlmoF9bP5TnxBC6kT-x-33" style="edgeStyle=none;html=1;" parent="1" source="mIlmoF9bP5TnxBC6kT-x-13" target="mIlmoF9bP5TnxBC6kT-x-27" edge="1">
                    <mxGeometry relative="1" as="geometry"/>
                </mxCell>
                <mxCell id="mIlmoF9bP5TnxBC6kT-x-34" style="edgeStyle=none;html=1;" parent="1" source="mIlmoF9bP5TnxBC6kT-x-17" target="mIlmoF9bP5TnxBC6kT-x-29" edge="1">
                    <mxGeometry relative="1" as="geometry"/>
                </mxCell>
            </root>
        </mxGraphModel>
    </diagram>
    <diagram name="コンポーネント図詳細" id="fgrWc-sXylV0rANuszpJ">
        <mxGraphModel dx="2768" dy="1654" grid="1" gridSize="10" guides="1" tooltips="1" connect="1" arrows="1" fold="1" page="1" pageScale="1" pageWidth="1169" pageHeight="827" math="0" shadow="0">
            <root>
                <mxCell id="kYm9fkxfaUYCWXl--_9i-0"/>
                <mxCell id="kYm9fkxfaUYCWXl--_9i-1" parent="kYm9fkxfaUYCWXl--_9i-0"/>
                <mxCell id="kYm9fkxfaUYCWXl--_9i-2" value="コンポーネント図詳細" style="shape=umlFrame;whiteSpace=wrap;html=1;swimlaneFillColor=default;width=180;height=25;" parent="kYm9fkxfaUYCWXl--_9i-1" vertex="1">
                    <mxGeometry x="50" y="14.75" width="1160" height="1475.25" as="geometry"/>
                </mxCell>
                <mxCell id="kYm9fkxfaUYCWXl--_9i-3" value="Entity" style="html=1;dropTarget=0;verticalAlign=top;" parent="kYm9fkxfaUYCWXl--_9i-1" vertex="1">
                    <mxGeometry x="80" y="800" width="1110" height="670" as="geometry"/>
                </mxCell>
                <mxCell id="kYm9fkxfaUYCWXl--_9i-4" value="" style="shape=module;jettyWidth=8;jettyHeight=4;verticalAlign=top;" parent="kYm9fkxfaUYCWXl--_9i-3" vertex="1">
                    <mxGeometry x="1" width="20" height="20" relative="1" as="geometry">
                        <mxPoint x="-30" y="7" as="offset"/>
                    </mxGeometry>
                </mxCell>
                <mxCell id="kYm9fkxfaUYCWXl--_9i-6" value="Repository&lt;span style=&quot;color: rgba(0, 0, 0, 0); font-family: monospace; font-size: 0px; text-align: start;&quot;&gt;%3CmxGraphModel%3E%3Croot%3E%3CmxCell%20id%3D%220%22%2F%3E%3CmxCell%20id%3D%221%22%20parent%3D%220%22%2F%3E%3CmxCell%20id%3D%222%22%20value%3D%22Entity%22%20style%3D%22html%3D1%3BdropTarget%3D0%3B%22%20vertex%3D%221%22%20parent%3D%221%22%3E%3CmxGeometry%20x%3D%22500%22%20y%3D%22369%22%20width%3D%22120%22%20height%3D%2251%22%20as%3D%22geometry%22%2F%3E%3C%2FmxCell%3E%3CmxCell%20id%3D%223%22%20value%3D%22%22%20style%3D%22shape%3Dmodule%3BjettyWidth%3D8%3BjettyHeight%3D4%3B%22%20vertex%3D%221%22%20parent%3D%222%22%3E%3CmxGeometry%20x%3D%221%22%20width%3D%2220%22%20height%3D%2220%22%20relative%3D%221%22%20as%3D%22geometry%22%3E%3CmxPoint%20x%3D%22-27%22%20y%3D%227%22%20as%3D%22offset%22%2F%3E%3C%2FmxGeometry%3E%3C%2FmxCell%3E%3C%2Froot%3E%3C%2FmxGraphModel%3E&lt;/span&gt;" style="html=1;dropTarget=0;verticalAlign=top;" parent="kYm9fkxfaUYCWXl--_9i-1" vertex="1">
                    <mxGeometry x="95" y="683" width="880" height="94" as="geometry"/>
                </mxCell>
                <mxCell id="kYm9fkxfaUYCWXl--_9i-7" value="" style="shape=module;jettyWidth=8;jettyHeight=4;verticalAlign=top;" parent="kYm9fkxfaUYCWXl--_9i-6" vertex="1">
                    <mxGeometry x="1" width="20" height="20" relative="1" as="geometry">
                        <mxPoint x="-27" y="7" as="offset"/>
                    </mxGeometry>
                </mxCell>
                <mxCell id="kYm9fkxfaUYCWXl--_9i-9" value="Usecase" style="html=1;dropTarget=0;verticalAlign=top;" parent="kYm9fkxfaUYCWXl--_9i-1" vertex="1">
                    <mxGeometry x="125" y="423" width="985" height="225" as="geometry"/>
                </mxCell>
                <mxCell id="kYm9fkxfaUYCWXl--_9i-10" value="" style="shape=module;jettyWidth=8;jettyHeight=4;verticalAlign=top;" parent="kYm9fkxfaUYCWXl--_9i-9" vertex="1">
                    <mxGeometry x="1" width="20" height="20" relative="1" as="geometry">
                        <mxPoint x="-27" y="7" as="offset"/>
                    </mxGeometry>
                </mxCell>
                <mxCell id="kYm9fkxfaUYCWXl--_9i-12" style="edgeStyle=none;html=1;" parent="kYm9fkxfaUYCWXl--_9i-1" source="kYm9fkxfaUYCWXl--_9i-13" target="kYm9fkxfaUYCWXl--_9i-28" edge="1">
                    <mxGeometry relative="1" as="geometry"/>
                </mxCell>
                <mxCell id="KwlK9dAusp6_GMZQ8fIn-17" style="edgeStyle=none;html=1;dashed=1;endArrow=classic;endFill=1;" edge="1" parent="kYm9fkxfaUYCWXl--_9i-1" source="kYm9fkxfaUYCWXl--_9i-13" target="kYm9fkxfaUYCWXl--_9i-9">
                    <mxGeometry relative="1" as="geometry">
                        <Array as="points">
                            <mxPoint x="500" y="320"/>
                        </Array>
                    </mxGeometry>
                </mxCell>
                <mxCell id="KwlK9dAusp6_GMZQ8fIn-20" value="&amp;lt;&amp;lt;use&amp;gt;&amp;gt;" style="edgeLabel;html=1;align=center;verticalAlign=middle;resizable=0;points=[];" vertex="1" connectable="0" parent="KwlK9dAusp6_GMZQ8fIn-17">
                    <mxGeometry x="-0.4433" relative="1" as="geometry">
                        <mxPoint x="-1" as="offset"/>
                    </mxGeometry>
                </mxCell>
                <mxCell id="kYm9fkxfaUYCWXl--_9i-13" value="App" style="html=1;dropTarget=0;horizontal=1;verticalAlign=top;" parent="kYm9fkxfaUYCWXl--_9i-1" vertex="1">
                    <mxGeometry x="120" y="160" width="300" height="170" as="geometry"/>
                </mxCell>
                <mxCell id="kYm9fkxfaUYCWXl--_9i-14" value="" style="shape=module;jettyWidth=8;jettyHeight=4;verticalAlign=top;" parent="kYm9fkxfaUYCWXl--_9i-13" vertex="1">
                    <mxGeometry x="1" width="20" height="20" relative="1" as="geometry">
                        <mxPoint x="-27" y="7" as="offset"/>
                    </mxGeometry>
                </mxCell>
                <mxCell id="kYm9fkxfaUYCWXl--_9i-15" value="Infrastructure" style="shape=folder;fontStyle=1;tabWidth=110;tabHeight=30;tabPosition=left;html=1;boundedLbl=1;labelInHeader=1;container=1;collapsible=0;verticalAlign=top;" parent="kYm9fkxfaUYCWXl--_9i-1" vertex="1">
                    <mxGeometry x="580" y="160" width="580" height="175" as="geometry"/>
                </mxCell>
                <mxCell id="kYm9fkxfaUYCWXl--_9i-16" value="" style="html=1;strokeColor=none;resizeWidth=1;resizeHeight=1;fillColor=none;part=1;connectable=0;allowArrows=0;deletable=0;verticalAlign=top;" parent="kYm9fkxfaUYCWXl--_9i-15" vertex="1">
                    <mxGeometry width="580" height="122.5" relative="1" as="geometry">
                        <mxPoint y="30" as="offset"/>
                    </mxGeometry>
                </mxCell>
                <mxCell id="kYm9fkxfaUYCWXl--_9i-17" value="Network" style="html=1;dropTarget=0;verticalAlign=top;" parent="kYm9fkxfaUYCWXl--_9i-15" vertex="1">
                    <mxGeometry x="187.09677419354838" y="102.08333333333333" width="121.2574193548387" height="49.583333333333336" as="geometry"/>
                </mxCell>
                <mxCell id="kYm9fkxfaUYCWXl--_9i-18" value="" style="shape=module;jettyWidth=8;jettyHeight=4;verticalAlign=top;" parent="kYm9fkxfaUYCWXl--_9i-17" vertex="1">
                    <mxGeometry x="1" width="20" height="20" relative="1" as="geometry">
                        <mxPoint x="-27" y="7" as="offset"/>
                    </mxGeometry>
                </mxCell>
                <mxCell id="kYm9fkxfaUYCWXl--_9i-19" style="edgeStyle=none;html=1;verticalAlign=top;" parent="kYm9fkxfaUYCWXl--_9i-15" source="kYm9fkxfaUYCWXl--_9i-20" target="kYm9fkxfaUYCWXl--_9i-17" edge="1">
                    <mxGeometry relative="1" as="geometry"/>
                </mxCell>
                <mxCell id="kYm9fkxfaUYCWXl--_9i-20" value="Device" style="html=1;dropTarget=0;verticalAlign=top;" parent="kYm9fkxfaUYCWXl--_9i-15" vertex="1">
                    <mxGeometry x="22.311290322580646" y="102.08333333333333" width="108.65645161290323" height="49.583333333333336" as="geometry"/>
                </mxCell>
                <mxCell id="kYm9fkxfaUYCWXl--_9i-21" value="" style="shape=module;jettyWidth=8;jettyHeight=4;verticalAlign=top;" parent="kYm9fkxfaUYCWXl--_9i-20" vertex="1">
                    <mxGeometry x="1" width="20" height="20" relative="1" as="geometry">
                        <mxPoint x="-27" y="7" as="offset"/>
                    </mxGeometry>
                </mxCell>
                <mxCell id="kYm9fkxfaUYCWXl--_9i-22" value="DataStore" style="html=1;dropTarget=0;verticalAlign=top;" parent="kYm9fkxfaUYCWXl--_9i-15" vertex="1">
                    <mxGeometry x="380" y="60" width="170" height="91.67" as="geometry"/>
                </mxCell>
                <mxCell id="kYm9fkxfaUYCWXl--_9i-23" value="" style="shape=module;jettyWidth=8;jettyHeight=4;verticalAlign=top;" parent="kYm9fkxfaUYCWXl--_9i-22" vertex="1">
                    <mxGeometry x="1" width="20" height="20" relative="1" as="geometry">
                        <mxPoint x="-27" y="7" as="offset"/>
                    </mxGeometry>
                </mxCell>
                <mxCell id="hnPsUiVtqgcNTeOrOCNK-3" value="DataFile" style="swimlane;fontStyle=1;align=center;verticalAlign=top;childLayout=stackLayout;horizontal=1;startSize=26;horizontalStack=0;resizeParent=1;resizeParentMax=0;resizeLast=0;collapsible=1;marginBottom=0;" parent="kYm9fkxfaUYCWXl--_9i-15" vertex="1">
                    <mxGeometry x="400" y="90" width="130" height="34" as="geometry"/>
                </mxCell>
                <mxCell id="hnPsUiVtqgcNTeOrOCNK-4" value="" style="line;strokeWidth=1;fillColor=none;align=left;verticalAlign=middle;spacingTop=-1;spacingLeft=3;spacingRight=3;rotatable=0;labelPosition=right;points=[];portConstraint=eastwest;strokeColor=inherit;" parent="hnPsUiVtqgcNTeOrOCNK-3" vertex="1">
                    <mxGeometry y="26" width="130" height="8" as="geometry"/>
                </mxCell>
                <mxCell id="kYm9fkxfaUYCWXl--_9i-26" value="" style="aspect=fixed;perimeter=ellipsePerimeter;html=1;align=center;shadow=0;dashed=0;spacingTop=3;image;image=img/lib/active_directory/vista_client.svg;" parent="kYm9fkxfaUYCWXl--_9i-1" vertex="1">
                    <mxGeometry x="678.25" y="30" width="38" height="50" as="geometry"/>
                </mxCell>
                <mxCell id="kYm9fkxfaUYCWXl--_9i-27" style="edgeStyle=none;html=1;endArrow=diamond;endFill=1;" parent="kYm9fkxfaUYCWXl--_9i-1" source="kYm9fkxfaUYCWXl--_9i-28" target="kYm9fkxfaUYCWXl--_9i-26" edge="1">
                    <mxGeometry relative="1" as="geometry"/>
                </mxCell>
                <mxCell id="kYm9fkxfaUYCWXl--_9i-28" value="" style="aspect=fixed;perimeter=ellipsePerimeter;html=1;align=center;shadow=0;dashed=0;spacingTop=3;image;image=img/lib/active_directory/home_page.svg;" parent="kYm9fkxfaUYCWXl--_9i-1" vertex="1">
                    <mxGeometry x="301.5" y="70" width="50" height="45" as="geometry"/>
                </mxCell>
                <mxCell id="kYm9fkxfaUYCWXl--_9i-29" style="edgeStyle=none;html=1;endArrow=diamond;endFill=1;" parent="kYm9fkxfaUYCWXl--_9i-1" source="kYm9fkxfaUYCWXl--_9i-30" target="kYm9fkxfaUYCWXl--_9i-26" edge="1">
                    <mxGeometry relative="1" as="geometry"/>
                </mxCell>
                <mxCell id="kYm9fkxfaUYCWXl--_9i-30" value="" style="aspect=fixed;perimeter=ellipsePerimeter;html=1;align=center;shadow=0;dashed=0;spacingTop=3;image;image=img/lib/active_directory/databases.svg;" parent="kYm9fkxfaUYCWXl--_9i-1" vertex="1">
                    <mxGeometry x="1020" y="80" width="50" height="49" as="geometry"/>
                </mxCell>
                <mxCell id="kYm9fkxfaUYCWXl--_9i-31" value="" style="aspect=fixed;perimeter=ellipsePerimeter;html=1;align=center;shadow=0;dashed=0;spacingTop=3;image;image=img/lib/active_directory/modem.svg;" parent="kYm9fkxfaUYCWXl--_9i-1" vertex="1">
                    <mxGeometry x="740" y="118.5" width="50" height="41.5" as="geometry"/>
                </mxCell>
                <mxCell id="kYm9fkxfaUYCWXl--_9i-32" style="edgeStyle=none;html=1;" parent="kYm9fkxfaUYCWXl--_9i-1" source="kYm9fkxfaUYCWXl--_9i-22" target="kYm9fkxfaUYCWXl--_9i-30" edge="1">
                    <mxGeometry relative="1" as="geometry"/>
                </mxCell>
                <mxCell id="kYm9fkxfaUYCWXl--_9i-33" style="edgeStyle=none;html=1;" parent="kYm9fkxfaUYCWXl--_9i-1" source="kYm9fkxfaUYCWXl--_9i-17" target="kYm9fkxfaUYCWXl--_9i-31" edge="1">
                    <mxGeometry relative="1" as="geometry"/>
                </mxCell>
                <mxCell id="oKoLSB4H9xfvWjCsK6OB-4" style="edgeStyle=none;html=1;" parent="kYm9fkxfaUYCWXl--_9i-1" source="oKoLSB4H9xfvWjCsK6OB-1" target="oKoLSB4H9xfvWjCsK6OB-2" edge="1">
                    <mxGeometry relative="1" as="geometry">
                        <Array as="points">
                            <mxPoint x="220" y="260"/>
                        </Array>
                    </mxGeometry>
                </mxCell>
                <mxCell id="oKoLSB4H9xfvWjCsK6OB-5" style="edgeStyle=none;html=1;" parent="kYm9fkxfaUYCWXl--_9i-1" source="oKoLSB4H9xfvWjCsK6OB-1" target="oKoLSB4H9xfvWjCsK6OB-3" edge="1">
                    <mxGeometry relative="1" as="geometry">
                        <Array as="points">
                            <mxPoint x="195" y="290"/>
                        </Array>
                    </mxGeometry>
                </mxCell>
                <mxCell id="oKoLSB4H9xfvWjCsK6OB-1" value="MainWindow" style="shape=folder;fontStyle=1;tabWidth=60;tabHeight=10;tabPosition=left;html=1;boundedLbl=1;" parent="kYm9fkxfaUYCWXl--_9i-1" vertex="1">
                    <mxGeometry x="140" y="193" width="110" height="39" as="geometry"/>
                </mxCell>
                <mxCell id="oKoLSB4H9xfvWjCsK6OB-2" value="EditWindow" style="shape=folder;fontStyle=1;tabWidth=60;tabHeight=10;tabPosition=left;html=1;boundedLbl=1;" parent="kYm9fkxfaUYCWXl--_9i-1" vertex="1">
                    <mxGeometry x="280" y="220" width="110" height="39" as="geometry"/>
                </mxCell>
                <mxCell id="oKoLSB4H9xfvWjCsK6OB-3" value="RelocateWindow" style="shape=folder;fontStyle=1;tabWidth=60;tabHeight=10;tabPosition=left;html=1;boundedLbl=1;" parent="kYm9fkxfaUYCWXl--_9i-1" vertex="1">
                    <mxGeometry x="280" y="270" width="110" height="39" as="geometry"/>
                </mxCell>
                <mxCell id="oKoLSB4H9xfvWjCsK6OB-10" value="Sub" style="shape=folder;fontStyle=1;tabWidth=60;tabHeight=10;tabPosition=left;html=1;boundedLbl=1;verticalAlign=top;" parent="kYm9fkxfaUYCWXl--_9i-1" vertex="1">
                    <mxGeometry x="140" y="460" width="150" height="119.5" as="geometry"/>
                </mxCell>
                <mxCell id="oKoLSB4H9xfvWjCsK6OB-11" value="CheckProblems" style="swimlane;fontStyle=1;align=center;verticalAlign=top;childLayout=stackLayout;horizontal=1;startSize=26;horizontalStack=0;resizeParent=1;resizeParentMax=0;resizeLast=0;collapsible=1;marginBottom=0;" parent="kYm9fkxfaUYCWXl--_9i-1" vertex="1">
                    <mxGeometry x="150" y="497" width="130" height="34" as="geometry"/>
                </mxCell>
                <mxCell id="oKoLSB4H9xfvWjCsK6OB-12" value="" style="line;strokeWidth=1;fillColor=none;align=left;verticalAlign=middle;spacingTop=-1;spacingLeft=3;spacingRight=3;rotatable=0;labelPosition=right;points=[];portConstraint=eastwest;strokeColor=inherit;" parent="oKoLSB4H9xfvWjCsK6OB-11" vertex="1">
                    <mxGeometry y="26" width="130" height="8" as="geometry"/>
                </mxCell>
                <mxCell id="KwlK9dAusp6_GMZQ8fIn-15" style="edgeStyle=none;html=1;dashed=1;endArrow=block;endFill=0;" edge="1" parent="kYm9fkxfaUYCWXl--_9i-1" source="oKoLSB4H9xfvWjCsK6OB-15" target="KwlK9dAusp6_GMZQ8fIn-5">
                    <mxGeometry relative="1" as="geometry"/>
                </mxCell>
                <mxCell id="oKoLSB4H9xfvWjCsK6OB-15" value="CheckProbremsUsecase" style="swimlane;fontStyle=1;align=center;verticalAlign=top;childLayout=stackLayout;horizontal=1;startSize=26;horizontalStack=0;resizeParent=1;resizeParentMax=0;resizeLast=0;collapsible=1;marginBottom=0;" parent="kYm9fkxfaUYCWXl--_9i-1" vertex="1">
                    <mxGeometry x="546.62" y="598" width="170" height="34" as="geometry"/>
                </mxCell>
                <mxCell id="oKoLSB4H9xfvWjCsK6OB-16" value="" style="line;strokeWidth=1;fillColor=none;align=left;verticalAlign=middle;spacingTop=-1;spacingLeft=3;spacingRight=3;rotatable=0;labelPosition=right;points=[];portConstraint=eastwest;strokeColor=inherit;" parent="oKoLSB4H9xfvWjCsK6OB-15" vertex="1">
                    <mxGeometry y="26" width="170" height="8" as="geometry"/>
                </mxCell>
                <mxCell id="KwlK9dAusp6_GMZQ8fIn-16" style="edgeStyle=none;html=1;dashed=1;endArrow=block;endFill=0;" edge="1" parent="kYm9fkxfaUYCWXl--_9i-1" source="oKoLSB4H9xfvWjCsK6OB-29" target="KwlK9dAusp6_GMZQ8fIn-6">
                    <mxGeometry relative="1" as="geometry"/>
                </mxCell>
                <mxCell id="oKoLSB4H9xfvWjCsK6OB-29" value="AddPersonUsecase" style="swimlane;fontStyle=1;align=center;verticalAlign=top;childLayout=stackLayout;horizontal=1;startSize=26;horizontalStack=0;resizeParent=1;resizeParentMax=0;resizeLast=0;collapsible=1;marginBottom=0;" parent="kYm9fkxfaUYCWXl--_9i-1" vertex="1">
                    <mxGeometry x="770" y="598" width="170" height="34" as="geometry"/>
                </mxCell>
                <mxCell id="oKoLSB4H9xfvWjCsK6OB-30" value="" style="line;strokeWidth=1;fillColor=none;align=left;verticalAlign=middle;spacingTop=-1;spacingLeft=3;spacingRight=3;rotatable=0;labelPosition=right;points=[];portConstraint=eastwest;strokeColor=inherit;" parent="oKoLSB4H9xfvWjCsK6OB-29" vertex="1">
                    <mxGeometry y="26" width="170" height="8" as="geometry"/>
                </mxCell>
                <mxCell id="KwlK9dAusp6_GMZQ8fIn-14" style="edgeStyle=none;html=1;dashed=1;endArrow=block;endFill=0;" edge="1" parent="kYm9fkxfaUYCWXl--_9i-1" source="oKoLSB4H9xfvWjCsK6OB-32" target="KwlK9dAusp6_GMZQ8fIn-3">
                    <mxGeometry relative="1" as="geometry"/>
                </mxCell>
                <mxCell id="oKoLSB4H9xfvWjCsK6OB-32" value="GetOrganizationStructureUsecase" style="swimlane;fontStyle=1;align=center;verticalAlign=top;childLayout=stackLayout;horizontal=1;startSize=26;horizontalStack=0;resizeParent=1;resizeParentMax=0;resizeLast=0;collapsible=1;marginBottom=0;" parent="kYm9fkxfaUYCWXl--_9i-1" vertex="1">
                    <mxGeometry x="298.25" y="598" width="230" height="34" as="geometry"/>
                </mxCell>
                <mxCell id="oKoLSB4H9xfvWjCsK6OB-33" value="" style="line;strokeWidth=1;fillColor=none;align=left;verticalAlign=middle;spacingTop=-1;spacingLeft=3;spacingRight=3;rotatable=0;labelPosition=right;points=[];portConstraint=eastwest;strokeColor=inherit;" parent="oKoLSB4H9xfvWjCsK6OB-32" vertex="1">
                    <mxGeometry y="26" width="230" height="8" as="geometry"/>
                </mxCell>
                <mxCell id="oKoLSB4H9xfvWjCsK6OB-38" style="edgeStyle=none;html=1;" parent="kYm9fkxfaUYCWXl--_9i-1" source="kYm9fkxfaUYCWXl--_9i-20" target="kYm9fkxfaUYCWXl--_9i-9" edge="1">
                    <mxGeometry relative="1" as="geometry">
                        <mxPoint x="1280" y="340" as="sourcePoint"/>
                    </mxGeometry>
                </mxCell>
                <mxCell id="oKoLSB4H9xfvWjCsK6OB-40" value="«interface»&lt;br&gt;&lt;b&gt;I&lt;/b&gt;&lt;span style=&quot;font-weight: 700;&quot;&gt;OrganizationRepository&lt;/span&gt;" style="html=1;" parent="kYm9fkxfaUYCWXl--_9i-1" vertex="1">
                    <mxGeometry x="119.37" y="708" width="190" height="50" as="geometry"/>
                </mxCell>
                <mxCell id="oKoLSB4H9xfvWjCsK6OB-42" value="«interface»&lt;br&gt;&lt;b&gt;I&lt;/b&gt;&lt;span style=&quot;font-weight: 700;&quot;&gt;PeopleRepository&lt;/span&gt;" style="html=1;" parent="kYm9fkxfaUYCWXl--_9i-1" vertex="1">
                    <mxGeometry x="601.25" y="716" width="190" height="50" as="geometry"/>
                </mxCell>
                <mxCell id="oKoLSB4H9xfvWjCsK6OB-43" value="PeopleRepository" style="swimlane;fontStyle=1;align=center;verticalAlign=top;childLayout=stackLayout;horizontal=1;startSize=26;horizontalStack=0;resizeParent=1;resizeParentMax=0;resizeLast=0;collapsible=1;marginBottom=0;" parent="kYm9fkxfaUYCWXl--_9i-1" vertex="1">
                    <mxGeometry x="813.75" y="724" width="130" height="34" as="geometry"/>
                </mxCell>
                <mxCell id="oKoLSB4H9xfvWjCsK6OB-44" value="" style="line;strokeWidth=1;fillColor=none;align=left;verticalAlign=middle;spacingTop=-1;spacingLeft=3;spacingRight=3;rotatable=0;labelPosition=right;points=[];portConstraint=eastwest;strokeColor=inherit;" parent="oKoLSB4H9xfvWjCsK6OB-43" vertex="1">
                    <mxGeometry y="26" width="130" height="8" as="geometry"/>
                </mxCell>
                <mxCell id="oKoLSB4H9xfvWjCsK6OB-45" value="" style="endArrow=block;startArrow=none;endFill=0;startFill=0;endSize=8;html=1;verticalAlign=bottom;dashed=1;labelBackgroundColor=none;" parent="kYm9fkxfaUYCWXl--_9i-1" source="oKoLSB4H9xfvWjCsK6OB-43" target="oKoLSB4H9xfvWjCsK6OB-42" edge="1">
                    <mxGeometry width="160" relative="1" as="geometry">
                        <mxPoint x="745" y="600" as="sourcePoint"/>
                        <mxPoint x="751.3513513513512" y="551" as="targetPoint"/>
                    </mxGeometry>
                </mxCell>
                <mxCell id="oKoLSB4H9xfvWjCsK6OB-46" value="OrganizationRepository" style="swimlane;fontStyle=1;align=center;verticalAlign=top;childLayout=stackLayout;horizontal=1;startSize=26;horizontalStack=0;resizeParent=1;resizeParentMax=0;resizeLast=0;collapsible=1;marginBottom=0;" parent="kYm9fkxfaUYCWXl--_9i-1" vertex="1">
                    <mxGeometry x="340" y="716" width="180" height="34" as="geometry"/>
                </mxCell>
                <mxCell id="oKoLSB4H9xfvWjCsK6OB-47" value="" style="line;strokeWidth=1;fillColor=none;align=left;verticalAlign=middle;spacingTop=-1;spacingLeft=3;spacingRight=3;rotatable=0;labelPosition=right;points=[];portConstraint=eastwest;strokeColor=inherit;" parent="oKoLSB4H9xfvWjCsK6OB-46" vertex="1">
                    <mxGeometry y="26" width="180" height="8" as="geometry"/>
                </mxCell>
                <mxCell id="oKoLSB4H9xfvWjCsK6OB-48" value="" style="endArrow=block;startArrow=none;endFill=0;startFill=0;endSize=8;html=1;verticalAlign=bottom;dashed=1;labelBackgroundColor=none;" parent="kYm9fkxfaUYCWXl--_9i-1" source="oKoLSB4H9xfvWjCsK6OB-46" target="oKoLSB4H9xfvWjCsK6OB-40" edge="1">
                    <mxGeometry width="160" relative="1" as="geometry">
                        <mxPoint x="637.9268292682927" y="823" as="sourcePoint"/>
                        <mxPoint x="633.0487804878048" y="783" as="targetPoint"/>
                    </mxGeometry>
                </mxCell>
                <mxCell id="oKoLSB4H9xfvWjCsK6OB-50" value="" style="html=1;verticalAlign=bottom;labelBackgroundColor=none;endArrow=open;endFill=0;dashed=1;" parent="kYm9fkxfaUYCWXl--_9i-1" source="kYm9fkxfaUYCWXl--_9i-13" target="KwlK9dAusp6_GMZQ8fIn-0" edge="1">
                    <mxGeometry width="160" relative="1" as="geometry">
                        <mxPoint x="700" y="480" as="sourcePoint"/>
                        <mxPoint x="487.6017441860465" y="400" as="targetPoint"/>
                    </mxGeometry>
                </mxCell>
                <mxCell id="KwlK9dAusp6_GMZQ8fIn-7" value="&amp;lt;&amp;lt;regist&amp;gt;&amp;gt;" style="edgeLabel;html=1;align=center;verticalAlign=middle;resizable=0;points=[];" vertex="1" connectable="0" parent="oKoLSB4H9xfvWjCsK6OB-50">
                    <mxGeometry x="0.3352" y="2" relative="1" as="geometry">
                        <mxPoint x="23" y="-8" as="offset"/>
                    </mxGeometry>
                </mxCell>
                <mxCell id="oKoLSB4H9xfvWjCsK6OB-53" value="EntityPacket" style="swimlane;fontStyle=1;align=center;verticalAlign=top;childLayout=stackLayout;horizontal=1;startSize=26;horizontalStack=0;resizeParent=1;resizeParentMax=0;resizeLast=0;collapsible=1;marginBottom=0;" parent="kYm9fkxfaUYCWXl--_9i-1" vertex="1">
                    <mxGeometry x="1020" y="823" width="130" height="34" as="geometry"/>
                </mxCell>
                <mxCell id="oKoLSB4H9xfvWjCsK6OB-54" value="" style="line;strokeWidth=1;fillColor=none;align=left;verticalAlign=middle;spacingTop=-1;spacingLeft=3;spacingRight=3;rotatable=0;labelPosition=right;points=[];portConstraint=eastwest;strokeColor=inherit;" parent="oKoLSB4H9xfvWjCsK6OB-53" vertex="1">
                    <mxGeometry y="26" width="130" height="8" as="geometry"/>
                </mxCell>
                <mxCell id="oKoLSB4H9xfvWjCsK6OB-64" value="Persons" style="shape=folder;fontStyle=1;tabWidth=60;tabHeight=10;tabPosition=left;html=1;boundedLbl=1;verticalAlign=top;" parent="kYm9fkxfaUYCWXl--_9i-1" vertex="1">
                    <mxGeometry x="558.75" y="874" width="540" height="300" as="geometry"/>
                </mxCell>
                <mxCell id="oKoLSB4H9xfvWjCsK6OB-65" value="Organization" style="shape=folder;fontStyle=1;tabWidth=60;tabHeight=10;tabPosition=left;html=1;boundedLbl=1;verticalAlign=top;" parent="kYm9fkxfaUYCWXl--_9i-1" vertex="1">
                    <mxGeometry x="110" y="809" width="418.25" height="414" as="geometry"/>
                </mxCell>
                <mxCell id="oKoLSB4H9xfvWjCsK6OB-66" value="DomainService" style="shape=folder;fontStyle=1;tabWidth=60;tabHeight=10;tabPosition=left;html=1;boundedLbl=1;verticalAlign=top;" parent="kYm9fkxfaUYCWXl--_9i-1" vertex="1">
                    <mxGeometry x="140" y="1250" width="650" height="190" as="geometry"/>
                </mxCell>
                <mxCell id="oKoLSB4H9xfvWjCsK6OB-67" value="DataPackets" style="shape=folder;fontStyle=1;tabWidth=60;tabHeight=10;tabPosition=left;html=1;boundedLbl=1;verticalAlign=top;" parent="kYm9fkxfaUYCWXl--_9i-1" vertex="1">
                    <mxGeometry x="568.75" y="994" width="520" height="150" as="geometry"/>
                </mxCell>
                <mxCell id="oKoLSB4H9xfvWjCsK6OB-68" value="«interface»&lt;br&gt;&lt;b&gt;IPeople&lt;/b&gt;" style="html=1;" parent="kYm9fkxfaUYCWXl--_9i-1" vertex="1">
                    <mxGeometry x="576" y="900" width="102.25" height="50" as="geometry"/>
                </mxCell>
                <mxCell id="oKoLSB4H9xfvWjCsK6OB-69" value="People" style="swimlane;fontStyle=1;align=center;verticalAlign=top;childLayout=stackLayout;horizontal=1;startSize=26;horizontalStack=0;resizeParent=1;resizeParentMax=0;resizeLast=0;collapsible=1;marginBottom=0;" parent="kYm9fkxfaUYCWXl--_9i-1" vertex="1">
                    <mxGeometry x="708.75" y="922" width="70" height="34" as="geometry"/>
                </mxCell>
                <mxCell id="oKoLSB4H9xfvWjCsK6OB-70" value="" style="line;strokeWidth=1;fillColor=none;align=left;verticalAlign=middle;spacingTop=-1;spacingLeft=3;spacingRight=3;rotatable=0;labelPosition=right;points=[];portConstraint=eastwest;strokeColor=inherit;" parent="oKoLSB4H9xfvWjCsK6OB-69" vertex="1">
                    <mxGeometry y="26" width="70" height="8" as="geometry"/>
                </mxCell>
                <mxCell id="oKoLSB4H9xfvWjCsK6OB-71" value="Person" style="swimlane;fontStyle=1;align=center;verticalAlign=top;childLayout=stackLayout;horizontal=1;startSize=26;horizontalStack=0;resizeParent=1;resizeParentMax=0;resizeLast=0;collapsible=1;marginBottom=0;" parent="kYm9fkxfaUYCWXl--_9i-1" vertex="1">
                    <mxGeometry x="803.25" y="922" width="70" height="34" as="geometry"/>
                </mxCell>
                <mxCell id="oKoLSB4H9xfvWjCsK6OB-72" value="" style="line;strokeWidth=1;fillColor=none;align=left;verticalAlign=middle;spacingTop=-1;spacingLeft=3;spacingRight=3;rotatable=0;labelPosition=right;points=[];portConstraint=eastwest;strokeColor=inherit;" parent="oKoLSB4H9xfvWjCsK6OB-71" vertex="1">
                    <mxGeometry y="26" width="70" height="8" as="geometry"/>
                </mxCell>
                <mxCell id="oKoLSB4H9xfvWjCsK6OB-74" value="" style="endArrow=none;startArrow=diamondThin;endFill=0;startFill=1;html=1;verticalAlign=bottom;labelBackgroundColor=none;strokeWidth=1;startSize=8;endSize=8;" parent="kYm9fkxfaUYCWXl--_9i-1" source="oKoLSB4H9xfvWjCsK6OB-69" target="oKoLSB4H9xfvWjCsK6OB-71" edge="1">
                    <mxGeometry width="160" relative="1" as="geometry">
                        <mxPoint x="568.75" y="964" as="sourcePoint"/>
                        <mxPoint x="728.75" y="964" as="targetPoint"/>
                    </mxGeometry>
                </mxCell>
                <mxCell id="oKoLSB4H9xfvWjCsK6OB-75" value="" style="endArrow=block;startArrow=none;endFill=0;startFill=0;endSize=8;html=1;verticalAlign=bottom;dashed=1;labelBackgroundColor=none;" parent="kYm9fkxfaUYCWXl--_9i-1" source="oKoLSB4H9xfvWjCsK6OB-69" target="oKoLSB4H9xfvWjCsK6OB-68" edge="1">
                    <mxGeometry width="160" relative="1" as="geometry">
                        <mxPoint x="863.3549382716046" y="764" as="sourcePoint"/>
                        <mxPoint x="863.5956790123455" y="725" as="targetPoint"/>
                    </mxGeometry>
                </mxCell>
                <mxCell id="oKoLSB4H9xfvWjCsK6OB-76" value="NameVO" style="swimlane;fontStyle=1;align=center;verticalAlign=top;childLayout=stackLayout;horizontal=1;startSize=26;horizontalStack=0;resizeParent=1;resizeParentMax=0;resizeLast=0;collapsible=1;marginBottom=0;" parent="kYm9fkxfaUYCWXl--_9i-1" vertex="1">
                    <mxGeometry x="904.75" y="950" width="70" height="34" as="geometry"/>
                </mxCell>
                <mxCell id="oKoLSB4H9xfvWjCsK6OB-77" value="" style="line;strokeWidth=1;fillColor=none;align=left;verticalAlign=middle;spacingTop=-1;spacingLeft=3;spacingRight=3;rotatable=0;labelPosition=right;points=[];portConstraint=eastwest;strokeColor=inherit;" parent="oKoLSB4H9xfvWjCsK6OB-76" vertex="1">
                    <mxGeometry y="26" width="70" height="8" as="geometry"/>
                </mxCell>
                <mxCell id="oKoLSB4H9xfvWjCsK6OB-78" value="BirthdayVO" style="swimlane;fontStyle=1;align=center;verticalAlign=top;childLayout=stackLayout;horizontal=1;startSize=26;horizontalStack=0;resizeParent=1;resizeParentMax=0;resizeLast=0;collapsible=1;marginBottom=0;" parent="kYm9fkxfaUYCWXl--_9i-1" vertex="1">
                    <mxGeometry x="994.75" y="950" width="90" height="34" as="geometry"/>
                </mxCell>
                <mxCell id="oKoLSB4H9xfvWjCsK6OB-79" value="" style="line;strokeWidth=1;fillColor=none;align=left;verticalAlign=middle;spacingTop=-1;spacingLeft=3;spacingRight=3;rotatable=0;labelPosition=right;points=[];portConstraint=eastwest;strokeColor=inherit;" parent="oKoLSB4H9xfvWjCsK6OB-78" vertex="1">
                    <mxGeometry y="26" width="90" height="8" as="geometry"/>
                </mxCell>
                <mxCell id="oKoLSB4H9xfvWjCsK6OB-80" value="" style="endArrow=none;startArrow=diamondThin;endFill=0;startFill=1;html=1;verticalAlign=bottom;labelBackgroundColor=none;strokeWidth=1;startSize=8;endSize=8;" parent="kYm9fkxfaUYCWXl--_9i-1" source="oKoLSB4H9xfvWjCsK6OB-71" target="oKoLSB4H9xfvWjCsK6OB-76" edge="1">
                    <mxGeometry width="160" relative="1" as="geometry">
                        <mxPoint x="798.75" y="949" as="sourcePoint"/>
                        <mxPoint x="843.75" y="949" as="targetPoint"/>
                    </mxGeometry>
                </mxCell>
                <mxCell id="oKoLSB4H9xfvWjCsK6OB-81" value="" style="endArrow=none;startArrow=diamondThin;endFill=0;startFill=1;html=1;verticalAlign=bottom;labelBackgroundColor=none;strokeWidth=1;startSize=8;endSize=8;" parent="kYm9fkxfaUYCWXl--_9i-1" source="oKoLSB4H9xfvWjCsK6OB-71" target="oKoLSB4H9xfvWjCsK6OB-78" edge="1">
                    <mxGeometry width="160" relative="1" as="geometry">
                        <mxPoint x="913.75" y="959.3157894736842" as="sourcePoint"/>
                        <mxPoint x="938.75" y="966.6842105263158" as="targetPoint"/>
                        <Array as="points">
                            <mxPoint x="998.75" y="934"/>
                        </Array>
                    </mxGeometry>
                </mxCell>
                <mxCell id="oKoLSB4H9xfvWjCsK6OB-82" value="PeoplePacket" style="swimlane;fontStyle=1;align=center;verticalAlign=top;childLayout=stackLayout;horizontal=1;startSize=26;horizontalStack=0;resizeParent=1;resizeParentMax=0;resizeLast=0;collapsible=1;marginBottom=0;" parent="kYm9fkxfaUYCWXl--_9i-1" vertex="1">
                    <mxGeometry x="598.75" y="1024" width="110" height="34" as="geometry"/>
                </mxCell>
                <mxCell id="oKoLSB4H9xfvWjCsK6OB-83" value="" style="line;strokeWidth=1;fillColor=none;align=left;verticalAlign=middle;spacingTop=-1;spacingLeft=3;spacingRight=3;rotatable=0;labelPosition=right;points=[];portConstraint=eastwest;strokeColor=inherit;" parent="oKoLSB4H9xfvWjCsK6OB-82" vertex="1">
                    <mxGeometry y="26" width="110" height="8" as="geometry"/>
                </mxCell>
                <mxCell id="oKoLSB4H9xfvWjCsK6OB-84" value="PersonPacket" style="swimlane;fontStyle=1;align=center;verticalAlign=top;childLayout=stackLayout;horizontal=1;startSize=26;horizontalStack=0;resizeParent=1;resizeParentMax=0;resizeLast=0;collapsible=1;marginBottom=0;" parent="kYm9fkxfaUYCWXl--_9i-1" vertex="1">
                    <mxGeometry x="728.75" y="1034" width="113.5" height="34" as="geometry"/>
                </mxCell>
                <mxCell id="oKoLSB4H9xfvWjCsK6OB-85" value="" style="line;strokeWidth=1;fillColor=none;align=left;verticalAlign=middle;spacingTop=-1;spacingLeft=3;spacingRight=3;rotatable=0;labelPosition=right;points=[];portConstraint=eastwest;strokeColor=inherit;" parent="oKoLSB4H9xfvWjCsK6OB-84" vertex="1">
                    <mxGeometry y="26" width="113.5" height="8" as="geometry"/>
                </mxCell>
                <mxCell id="oKoLSB4H9xfvWjCsK6OB-86" value="NameVOPacket" style="swimlane;fontStyle=1;align=center;verticalAlign=top;childLayout=stackLayout;horizontal=1;startSize=26;horizontalStack=0;resizeParent=1;resizeParentMax=0;resizeLast=0;collapsible=1;marginBottom=0;" parent="kYm9fkxfaUYCWXl--_9i-1" vertex="1">
                    <mxGeometry x="863.75" y="1052" width="130" height="34" as="geometry"/>
                </mxCell>
                <mxCell id="oKoLSB4H9xfvWjCsK6OB-87" value="" style="line;strokeWidth=1;fillColor=none;align=left;verticalAlign=middle;spacingTop=-1;spacingLeft=3;spacingRight=3;rotatable=0;labelPosition=right;points=[];portConstraint=eastwest;strokeColor=inherit;" parent="oKoLSB4H9xfvWjCsK6OB-86" vertex="1">
                    <mxGeometry y="26" width="130" height="8" as="geometry"/>
                </mxCell>
                <mxCell id="oKoLSB4H9xfvWjCsK6OB-88" value="BirthdayVOPacket" style="swimlane;fontStyle=1;align=center;verticalAlign=top;childLayout=stackLayout;horizontal=1;startSize=26;horizontalStack=0;resizeParent=1;resizeParentMax=0;resizeLast=0;collapsible=1;marginBottom=0;" parent="kYm9fkxfaUYCWXl--_9i-1" vertex="1">
                    <mxGeometry x="948.75" y="1094" width="138" height="34" as="geometry"/>
                </mxCell>
                <mxCell id="oKoLSB4H9xfvWjCsK6OB-89" value="" style="line;strokeWidth=1;fillColor=none;align=left;verticalAlign=middle;spacingTop=-1;spacingLeft=3;spacingRight=3;rotatable=0;labelPosition=right;points=[];portConstraint=eastwest;strokeColor=inherit;" parent="oKoLSB4H9xfvWjCsK6OB-88" vertex="1">
                    <mxGeometry y="26" width="138" height="8" as="geometry"/>
                </mxCell>
                <mxCell id="oKoLSB4H9xfvWjCsK6OB-90" value="" style="html=1;verticalAlign=bottom;labelBackgroundColor=none;endArrow=open;endFill=0;dashed=1;" parent="kYm9fkxfaUYCWXl--_9i-1" source="oKoLSB4H9xfvWjCsK6OB-69" target="oKoLSB4H9xfvWjCsK6OB-82" edge="1">
                    <mxGeometry width="160" relative="1" as="geometry">
                        <mxPoint x="715" y="914" as="sourcePoint"/>
                        <mxPoint x="675.5" y="993" as="targetPoint"/>
                    </mxGeometry>
                </mxCell>
                <mxCell id="oKoLSB4H9xfvWjCsK6OB-93" value="" style="endArrow=none;startArrow=diamondThin;endFill=0;startFill=1;html=1;verticalAlign=bottom;labelBackgroundColor=none;strokeWidth=1;startSize=8;endSize=8;" parent="kYm9fkxfaUYCWXl--_9i-1" source="oKoLSB4H9xfvWjCsK6OB-82" target="oKoLSB4H9xfvWjCsK6OB-84" edge="1">
                    <mxGeometry width="160" relative="1" as="geometry">
                        <mxPoint x="788.75" y="949" as="sourcePoint"/>
                        <mxPoint x="813.25" y="949" as="targetPoint"/>
                    </mxGeometry>
                </mxCell>
                <mxCell id="oKoLSB4H9xfvWjCsK6OB-94" value="" style="endArrow=none;startArrow=diamondThin;endFill=0;startFill=1;html=1;verticalAlign=bottom;labelBackgroundColor=none;strokeWidth=1;startSize=8;endSize=8;" parent="kYm9fkxfaUYCWXl--_9i-1" source="oKoLSB4H9xfvWjCsK6OB-84" target="oKoLSB4H9xfvWjCsK6OB-86" edge="1">
                    <mxGeometry width="160" relative="1" as="geometry">
                        <mxPoint x="883.25" y="958.655172413793" as="sourcePoint"/>
                        <mxPoint x="914.75" y="967.3448275862067" as="targetPoint"/>
                    </mxGeometry>
                </mxCell>
                <mxCell id="oKoLSB4H9xfvWjCsK6OB-95" value="" style="endArrow=none;startArrow=diamondThin;endFill=0;startFill=1;html=1;verticalAlign=bottom;labelBackgroundColor=none;strokeWidth=1;startSize=8;endSize=8;" parent="kYm9fkxfaUYCWXl--_9i-1" source="oKoLSB4H9xfvWjCsK6OB-84" target="oKoLSB4H9xfvWjCsK6OB-88" edge="1">
                    <mxGeometry width="160" relative="1" as="geometry">
                        <mxPoint x="883.25" y="947.9096573208722" as="sourcePoint"/>
                        <mxPoint x="1028.628787878788" y="960" as="targetPoint"/>
                        <Array as="points">
                            <mxPoint x="848.75" y="1104"/>
                        </Array>
                    </mxGeometry>
                </mxCell>
                <mxCell id="oKoLSB4H9xfvWjCsK6OB-96" value="" style="html=1;verticalAlign=bottom;labelBackgroundColor=none;endArrow=open;endFill=0;dashed=1;" parent="kYm9fkxfaUYCWXl--_9i-1" source="oKoLSB4H9xfvWjCsK6OB-71" target="oKoLSB4H9xfvWjCsK6OB-84" edge="1">
                    <mxGeometry width="160" relative="1" as="geometry">
                        <mxPoint x="738.75" y="966" as="sourcePoint"/>
                        <mxPoint x="678.75" y="1034" as="targetPoint"/>
                    </mxGeometry>
                </mxCell>
                <mxCell id="oKoLSB4H9xfvWjCsK6OB-97" value="" style="html=1;verticalAlign=bottom;labelBackgroundColor=none;endArrow=open;endFill=0;dashed=1;" parent="kYm9fkxfaUYCWXl--_9i-1" source="oKoLSB4H9xfvWjCsK6OB-76" target="oKoLSB4H9xfvWjCsK6OB-86" edge="1">
                    <mxGeometry width="160" relative="1" as="geometry">
                        <mxPoint x="840.2433035714284" y="966" as="sourcePoint"/>
                        <mxPoint x="803.5066964285716" y="1044" as="targetPoint"/>
                    </mxGeometry>
                </mxCell>
                <mxCell id="oKoLSB4H9xfvWjCsK6OB-98" value="" style="html=1;verticalAlign=bottom;labelBackgroundColor=none;endArrow=open;endFill=0;dashed=1;" parent="kYm9fkxfaUYCWXl--_9i-1" source="oKoLSB4H9xfvWjCsK6OB-78" target="oKoLSB4H9xfvWjCsK6OB-88" edge="1">
                    <mxGeometry width="160" relative="1" as="geometry">
                        <mxPoint x="947.916666666667" y="994" as="sourcePoint"/>
                        <mxPoint x="940.583333333333" y="1062" as="targetPoint"/>
                    </mxGeometry>
                </mxCell>
                <mxCell id="oKoLSB4H9xfvWjCsK6OB-99" value="" style="endArrow=none;startArrow=diamondThin;endFill=0;startFill=1;html=1;verticalAlign=bottom;labelBackgroundColor=none;strokeWidth=1;startSize=8;endSize=8;" parent="kYm9fkxfaUYCWXl--_9i-1" source="oKoLSB4H9xfvWjCsK6OB-53" target="oKoLSB4H9xfvWjCsK6OB-82" edge="1">
                    <mxGeometry width="160" relative="1" as="geometry">
                        <mxPoint x="407.0377358490564" y="1027" as="sourcePoint"/>
                        <mxPoint x="550" y="1067.1420118343194" as="targetPoint"/>
                        <Array as="points">
                            <mxPoint x="1120" y="883"/>
                            <mxPoint x="1120" y="1193"/>
                            <mxPoint x="630" y="1203"/>
                        </Array>
                    </mxGeometry>
                </mxCell>
                <mxCell id="yB2r2odAOW9ld5kx9ZvG-0" value="" style="html=1;verticalAlign=bottom;labelBackgroundColor=none;endArrow=open;endFill=0;dashed=1;" parent="kYm9fkxfaUYCWXl--_9i-1" source="kYm9fkxfaUYCWXl--_9i-22" target="oKoLSB4H9xfvWjCsK6OB-53" edge="1">
                    <mxGeometry width="160" relative="1" as="geometry">
                        <mxPoint x="337.5" y="340" as="sourcePoint"/>
                        <mxPoint x="298" y="419" as="targetPoint"/>
                        <Array as="points">
                            <mxPoint x="1190" y="310"/>
                            <mxPoint x="1170" y="690"/>
                        </Array>
                    </mxGeometry>
                </mxCell>
                <mxCell id="nYZzCSbYtuYDyp5w1-ZW-0" value="«interface»&lt;br&gt;&lt;b&gt;IOrganization&lt;/b&gt;" style="html=1;" parent="kYm9fkxfaUYCWXl--_9i-1" vertex="1">
                    <mxGeometry x="117.75" y="835" width="102.25" height="50" as="geometry"/>
                </mxCell>
                <mxCell id="nYZzCSbYtuYDyp5w1-ZW-1" value="Organization" style="swimlane;fontStyle=1;align=center;verticalAlign=top;childLayout=stackLayout;horizontal=1;startSize=26;horizontalStack=0;resizeParent=1;resizeParentMax=0;resizeLast=0;collapsible=1;marginBottom=0;" parent="kYm9fkxfaUYCWXl--_9i-1" vertex="1">
                    <mxGeometry x="140" y="909" width="100" height="34" as="geometry"/>
                </mxCell>
                <mxCell id="nYZzCSbYtuYDyp5w1-ZW-2" value="" style="line;strokeWidth=1;fillColor=none;align=left;verticalAlign=middle;spacingTop=-1;spacingLeft=3;spacingRight=3;rotatable=0;labelPosition=right;points=[];portConstraint=eastwest;strokeColor=inherit;" parent="nYZzCSbYtuYDyp5w1-ZW-1" vertex="1">
                    <mxGeometry y="26" width="100" height="8" as="geometry"/>
                </mxCell>
                <mxCell id="nYZzCSbYtuYDyp5w1-ZW-3" value="" style="endArrow=block;startArrow=none;endFill=0;startFill=0;endSize=8;html=1;verticalAlign=bottom;dashed=1;labelBackgroundColor=none;" parent="kYm9fkxfaUYCWXl--_9i-1" source="nYZzCSbYtuYDyp5w1-ZW-1" target="nYZzCSbYtuYDyp5w1-ZW-0" edge="1">
                    <mxGeometry width="160" relative="1" as="geometry">
                        <mxPoint x="702.75" y="884" as="sourcePoint"/>
                        <mxPoint x="669.5" y="884" as="targetPoint"/>
                    </mxGeometry>
                </mxCell>
                <mxCell id="nYZzCSbYtuYDyp5w1-ZW-5" value="OrganizationBase" style="swimlane;fontStyle=1;align=center;verticalAlign=top;childLayout=stackLayout;horizontal=1;startSize=26;horizontalStack=0;resizeParent=1;resizeParentMax=0;resizeLast=0;collapsible=1;marginBottom=0;" parent="kYm9fkxfaUYCWXl--_9i-1" vertex="1">
                    <mxGeometry x="195" y="959" width="140" height="34" as="geometry"/>
                </mxCell>
                <mxCell id="nYZzCSbYtuYDyp5w1-ZW-6" value="" style="line;strokeWidth=1;fillColor=none;align=left;verticalAlign=middle;spacingTop=-1;spacingLeft=3;spacingRight=3;rotatable=0;labelPosition=right;points=[];portConstraint=eastwest;strokeColor=inherit;" parent="nYZzCSbYtuYDyp5w1-ZW-5" vertex="1">
                    <mxGeometry y="26" width="140" height="8" as="geometry"/>
                </mxCell>
                <mxCell id="nYZzCSbYtuYDyp5w1-ZW-7" value="ManagementOrganization" style="swimlane;fontStyle=1;align=center;verticalAlign=top;childLayout=stackLayout;horizontal=1;startSize=26;horizontalStack=0;resizeParent=1;resizeParentMax=0;resizeLast=0;collapsible=1;marginBottom=0;" parent="kYm9fkxfaUYCWXl--_9i-1" vertex="1">
                    <mxGeometry x="239" y="1021" width="175" height="34" as="geometry"/>
                </mxCell>
                <mxCell id="nYZzCSbYtuYDyp5w1-ZW-8" value="" style="line;strokeWidth=1;fillColor=none;align=left;verticalAlign=middle;spacingTop=-1;spacingLeft=3;spacingRight=3;rotatable=0;labelPosition=right;points=[];portConstraint=eastwest;strokeColor=inherit;" parent="nYZzCSbYtuYDyp5w1-ZW-7" vertex="1">
                    <mxGeometry y="26" width="175" height="8" as="geometry"/>
                </mxCell>
                <mxCell id="nYZzCSbYtuYDyp5w1-ZW-9" value="TerminalOrganization" style="swimlane;fontStyle=1;align=center;verticalAlign=top;childLayout=stackLayout;horizontal=1;startSize=26;horizontalStack=0;resizeParent=1;resizeParentMax=0;resizeLast=0;collapsible=1;marginBottom=0;" parent="kYm9fkxfaUYCWXl--_9i-1" vertex="1">
                    <mxGeometry x="345" y="1066" width="175" height="34" as="geometry"/>
                </mxCell>
                <mxCell id="nYZzCSbYtuYDyp5w1-ZW-10" value="" style="line;strokeWidth=1;fillColor=none;align=left;verticalAlign=middle;spacingTop=-1;spacingLeft=3;spacingRight=3;rotatable=0;labelPosition=right;points=[];portConstraint=eastwest;strokeColor=inherit;" parent="nYZzCSbYtuYDyp5w1-ZW-9" vertex="1">
                    <mxGeometry y="26" width="175" height="8" as="geometry"/>
                </mxCell>
                <mxCell id="nYZzCSbYtuYDyp5w1-ZW-15" value="" style="endArrow=none;startArrow=diamondThin;endFill=0;startFill=0;html=1;verticalAlign=bottom;labelBackgroundColor=none;strokeWidth=1;startSize=8;endSize=8;" parent="kYm9fkxfaUYCWXl--_9i-1" source="nYZzCSbYtuYDyp5w1-ZW-7" target="nYZzCSbYtuYDyp5w1-ZW-5" edge="1">
                    <mxGeometry width="160" relative="1" as="geometry">
                        <mxPoint x="500" y="959" as="sourcePoint"/>
                        <mxPoint x="660" y="959" as="targetPoint"/>
                    </mxGeometry>
                </mxCell>
                <mxCell id="nYZzCSbYtuYDyp5w1-ZW-16" value="" style="endArrow=block;startArrow=none;endFill=0;startFill=0;endSize=8;html=1;verticalAlign=bottom;labelBackgroundColor=none;" parent="kYm9fkxfaUYCWXl--_9i-1" source="nYZzCSbYtuYDyp5w1-ZW-7" target="nYZzCSbYtuYDyp5w1-ZW-5" edge="1">
                    <mxGeometry width="160" relative="1" as="geometry">
                        <mxPoint x="194.558712121212" y="919" as="sourcePoint"/>
                        <mxPoint x="186.87689393939377" y="895" as="targetPoint"/>
                        <Array as="points">
                            <mxPoint x="360" y="979"/>
                        </Array>
                    </mxGeometry>
                </mxCell>
                <mxCell id="nYZzCSbYtuYDyp5w1-ZW-18" value="" style="endArrow=block;startArrow=none;endFill=0;startFill=0;endSize=8;html=1;verticalAlign=bottom;labelBackgroundColor=none;" parent="kYm9fkxfaUYCWXl--_9i-1" source="nYZzCSbYtuYDyp5w1-ZW-9" target="nYZzCSbYtuYDyp5w1-ZW-5" edge="1">
                    <mxGeometry width="160" relative="1" as="geometry">
                        <mxPoint x="346.15254237288127" y="1031" as="sourcePoint"/>
                        <mxPoint x="345" y="988.2105263157894" as="targetPoint"/>
                        <Array as="points">
                            <mxPoint x="440" y="959"/>
                        </Array>
                    </mxGeometry>
                </mxCell>
                <mxCell id="nYZzCSbYtuYDyp5w1-ZW-19" value="" style="endArrow=none;startArrow=diamondThin;endFill=0;startFill=1;html=1;verticalAlign=bottom;labelBackgroundColor=none;strokeWidth=1;startSize=8;endSize=8;" parent="kYm9fkxfaUYCWXl--_9i-1" source="nYZzCSbYtuYDyp5w1-ZW-1" target="nYZzCSbYtuYDyp5w1-ZW-5" edge="1">
                    <mxGeometry width="160" relative="1" as="geometry">
                        <mxPoint x="867.25" y="893.6551724137928" as="sourcePoint"/>
                        <mxPoint x="898.7500000000005" y="902.344827586207" as="targetPoint"/>
                    </mxGeometry>
                </mxCell>
                <mxCell id="nYZzCSbYtuYDyp5w1-ZW-20" value="UnAssignedMembersGroup" style="swimlane;fontStyle=1;align=center;verticalAlign=top;childLayout=stackLayout;horizontal=1;startSize=26;horizontalStack=0;resizeParent=1;resizeParentMax=0;resizeLast=0;collapsible=1;marginBottom=0;" parent="kYm9fkxfaUYCWXl--_9i-1" vertex="1">
                    <mxGeometry x="290" y="895" width="206" height="34" as="geometry"/>
                </mxCell>
                <mxCell id="nYZzCSbYtuYDyp5w1-ZW-21" value="" style="line;strokeWidth=1;fillColor=none;align=left;verticalAlign=middle;spacingTop=-1;spacingLeft=3;spacingRight=3;rotatable=0;labelPosition=right;points=[];portConstraint=eastwest;strokeColor=inherit;" parent="nYZzCSbYtuYDyp5w1-ZW-20" vertex="1">
                    <mxGeometry y="26" width="206" height="8" as="geometry"/>
                </mxCell>
                <mxCell id="nYZzCSbYtuYDyp5w1-ZW-22" value="" style="endArrow=none;startArrow=diamondThin;endFill=0;startFill=1;html=1;verticalAlign=bottom;labelBackgroundColor=none;strokeWidth=1;startSize=8;endSize=8;" parent="kYm9fkxfaUYCWXl--_9i-1" source="nYZzCSbYtuYDyp5w1-ZW-1" target="nYZzCSbYtuYDyp5w1-ZW-20" edge="1">
                    <mxGeometry width="160" relative="1" as="geometry">
                        <mxPoint x="225.5" y="953" as="sourcePoint"/>
                        <mxPoint x="249.5" y="969" as="targetPoint"/>
                    </mxGeometry>
                </mxCell>
                <mxCell id="nYZzCSbYtuYDyp5w1-ZW-23" value="" style="endArrow=block;startArrow=none;endFill=0;startFill=0;endSize=8;html=1;verticalAlign=bottom;labelBackgroundColor=none;" parent="kYm9fkxfaUYCWXl--_9i-1" source="nYZzCSbYtuYDyp5w1-ZW-20" target="nYZzCSbYtuYDyp5w1-ZW-5" edge="1">
                    <mxGeometry width="160" relative="1" as="geometry">
                        <mxPoint x="443.5282258064515" y="1076" as="sourcePoint"/>
                        <mxPoint x="345" y="979.2000000000003" as="targetPoint"/>
                        <Array as="points">
                            <mxPoint x="400" y="949"/>
                        </Array>
                    </mxGeometry>
                </mxCell>
                <mxCell id="nYZzCSbYtuYDyp5w1-ZW-24" value="DataPackets" style="shape=folder;fontStyle=1;tabWidth=60;tabHeight=10;tabPosition=left;html=1;boundedLbl=1;verticalAlign=top;" parent="kYm9fkxfaUYCWXl--_9i-1" vertex="1">
                    <mxGeometry x="117.75" y="1113" width="392.25" height="93" as="geometry"/>
                </mxCell>
                <mxCell id="nYZzCSbYtuYDyp5w1-ZW-25" value="OrganizationPacket" style="swimlane;fontStyle=1;align=center;verticalAlign=top;childLayout=stackLayout;horizontal=1;startSize=26;horizontalStack=0;resizeParent=1;resizeParentMax=0;resizeLast=0;collapsible=1;marginBottom=0;" parent="kYm9fkxfaUYCWXl--_9i-1" vertex="1">
                    <mxGeometry x="140" y="1147" width="140" height="34" as="geometry"/>
                </mxCell>
                <mxCell id="nYZzCSbYtuYDyp5w1-ZW-26" value="" style="line;strokeWidth=1;fillColor=none;align=left;verticalAlign=middle;spacingTop=-1;spacingLeft=3;spacingRight=3;rotatable=0;labelPosition=right;points=[];portConstraint=eastwest;strokeColor=inherit;" parent="nYZzCSbYtuYDyp5w1-ZW-25" vertex="1">
                    <mxGeometry y="26" width="140" height="8" as="geometry"/>
                </mxCell>
                <mxCell id="nYZzCSbYtuYDyp5w1-ZW-27" value="OrganizationBasePacket" style="swimlane;fontStyle=1;align=center;verticalAlign=top;childLayout=stackLayout;horizontal=1;startSize=26;horizontalStack=0;resizeParent=1;resizeParentMax=0;resizeLast=0;collapsible=1;marginBottom=0;" parent="kYm9fkxfaUYCWXl--_9i-1" vertex="1">
                    <mxGeometry x="310" y="1147" width="180" height="34" as="geometry"/>
                </mxCell>
                <mxCell id="nYZzCSbYtuYDyp5w1-ZW-28" value="" style="line;strokeWidth=1;fillColor=none;align=left;verticalAlign=middle;spacingTop=-1;spacingLeft=3;spacingRight=3;rotatable=0;labelPosition=right;points=[];portConstraint=eastwest;strokeColor=inherit;" parent="nYZzCSbYtuYDyp5w1-ZW-27" vertex="1">
                    <mxGeometry y="26" width="180" height="8" as="geometry"/>
                </mxCell>
                <mxCell id="nYZzCSbYtuYDyp5w1-ZW-29" value="" style="endArrow=none;startArrow=diamondThin;endFill=0;startFill=1;html=1;verticalAlign=bottom;labelBackgroundColor=none;strokeWidth=1;startSize=8;endSize=8;" parent="kYm9fkxfaUYCWXl--_9i-1" source="nYZzCSbYtuYDyp5w1-ZW-25" target="nYZzCSbYtuYDyp5w1-ZW-27" edge="1">
                    <mxGeometry width="160" relative="1" as="geometry">
                        <mxPoint x="225.5" y="952.9999999999998" as="sourcePoint"/>
                        <mxPoint x="249.5" y="969" as="targetPoint"/>
                    </mxGeometry>
                </mxCell>
                <mxCell id="nYZzCSbYtuYDyp5w1-ZW-30" value="" style="html=1;verticalAlign=bottom;labelBackgroundColor=none;endArrow=open;endFill=0;dashed=1;" parent="kYm9fkxfaUYCWXl--_9i-1" source="nYZzCSbYtuYDyp5w1-ZW-1" target="nYZzCSbYtuYDyp5w1-ZW-25" edge="1">
                    <mxGeometry width="160" relative="1" as="geometry">
                        <mxPoint x="722.75" y="964.9999999999998" as="sourcePoint"/>
                        <mxPoint x="662.75" y="1033" as="targetPoint"/>
                        <Array as="points">
                            <mxPoint x="130" y="1053"/>
                        </Array>
                    </mxGeometry>
                </mxCell>
                <mxCell id="nYZzCSbYtuYDyp5w1-ZW-31" value="" style="html=1;verticalAlign=bottom;labelBackgroundColor=none;endArrow=open;endFill=0;dashed=1;" parent="kYm9fkxfaUYCWXl--_9i-1" source="nYZzCSbYtuYDyp5w1-ZW-5" target="nYZzCSbYtuYDyp5w1-ZW-27" edge="1">
                    <mxGeometry width="160" relative="1" as="geometry">
                        <mxPoint x="191.96850393700788" y="952.9999999999998" as="sourcePoint"/>
                        <mxPoint x="207.74774774774778" y="1157" as="targetPoint"/>
                        <Array as="points">
                            <mxPoint x="170" y="1043"/>
                        </Array>
                    </mxGeometry>
                </mxCell>
                <mxCell id="nYZzCSbYtuYDyp5w1-ZW-32" value="" style="endArrow=none;startArrow=diamondThin;endFill=0;startFill=1;html=1;verticalAlign=bottom;labelBackgroundColor=none;strokeWidth=1;startSize=8;endSize=8;" parent="kYm9fkxfaUYCWXl--_9i-1" source="oKoLSB4H9xfvWjCsK6OB-53" target="nYZzCSbYtuYDyp5w1-ZW-25" edge="1">
                    <mxGeometry width="160" relative="1" as="geometry">
                        <mxPoint x="1108.8372093023258" y="867" as="sourcePoint"/>
                        <mxPoint x="647.7845528455287" y="1067" as="targetPoint"/>
                        <Array as="points">
                            <mxPoint x="1160" y="893"/>
                            <mxPoint x="1160" y="1223"/>
                            <mxPoint x="210" y="1233"/>
                        </Array>
                    </mxGeometry>
                </mxCell>
                <mxCell id="nYZzCSbYtuYDyp5w1-ZW-33" value="«interface»&lt;br&gt;&lt;b&gt;IOrganization&lt;/b&gt;" style="html=1;" parent="kYm9fkxfaUYCWXl--_9i-1" vertex="1">
                    <mxGeometry x="603.87" y="1270" width="127.25" height="50" as="geometry"/>
                </mxCell>
                <mxCell id="nYZzCSbYtuYDyp5w1-ZW-34" value="OrganizaitonBuilder" style="swimlane;fontStyle=1;align=center;verticalAlign=top;childLayout=stackLayout;horizontal=1;startSize=26;horizontalStack=0;resizeParent=1;resizeParentMax=0;resizeLast=0;collapsible=1;marginBottom=0;" parent="kYm9fkxfaUYCWXl--_9i-1" vertex="1">
                    <mxGeometry x="603.87" y="1350" width="138" height="34" as="geometry"/>
                </mxCell>
                <mxCell id="nYZzCSbYtuYDyp5w1-ZW-35" value="" style="line;strokeWidth=1;fillColor=none;align=left;verticalAlign=middle;spacingTop=-1;spacingLeft=3;spacingRight=3;rotatable=0;labelPosition=right;points=[];portConstraint=eastwest;strokeColor=inherit;" parent="nYZzCSbYtuYDyp5w1-ZW-34" vertex="1">
                    <mxGeometry y="26" width="138" height="8" as="geometry"/>
                </mxCell>
                <mxCell id="nYZzCSbYtuYDyp5w1-ZW-36" value="" style="endArrow=block;startArrow=none;endFill=0;startFill=0;endSize=8;html=1;verticalAlign=bottom;dashed=1;labelBackgroundColor=none;" parent="kYm9fkxfaUYCWXl--_9i-1" source="nYZzCSbYtuYDyp5w1-ZW-34" target="nYZzCSbYtuYDyp5w1-ZW-33" edge="1">
                    <mxGeometry width="160" relative="1" as="geometry">
                        <mxPoint x="308.47493827160486" y="730" as="sourcePoint"/>
                        <mxPoint x="308.71567901234573" y="691" as="targetPoint"/>
                    </mxGeometry>
                </mxCell>
                <mxCell id="nYZzCSbYtuYDyp5w1-ZW-37" value="OrganizationVisitor" style="shape=folder;fontStyle=1;tabWidth=60;tabHeight=10;tabPosition=left;html=1;boundedLbl=1;verticalAlign=top;" parent="kYm9fkxfaUYCWXl--_9i-1" vertex="1">
                    <mxGeometry x="154.37" y="1278.5" width="392.25" height="151.5" as="geometry"/>
                </mxCell>
                <mxCell id="nYZzCSbYtuYDyp5w1-ZW-38" value="«interface»&lt;br&gt;&lt;b&gt;IOrganizationVisitor&lt;/b&gt;" style="html=1;" parent="kYm9fkxfaUYCWXl--_9i-1" vertex="1">
                    <mxGeometry x="163.87" y="1320" width="127.25" height="50" as="geometry"/>
                </mxCell>
                <mxCell id="nYZzCSbYtuYDyp5w1-ZW-39" value="AddDirectEmployeeVisitor" style="swimlane;fontStyle=1;align=center;verticalAlign=top;childLayout=stackLayout;horizontal=1;startSize=26;horizontalStack=0;resizeParent=1;resizeParentMax=0;resizeLast=0;collapsible=1;marginBottom=0;" parent="kYm9fkxfaUYCWXl--_9i-1" vertex="1">
                    <mxGeometry x="333.87" y="1320" width="193" height="34" as="geometry"/>
                </mxCell>
                <mxCell id="nYZzCSbYtuYDyp5w1-ZW-40" value="" style="line;strokeWidth=1;fillColor=none;align=left;verticalAlign=middle;spacingTop=-1;spacingLeft=3;spacingRight=3;rotatable=0;labelPosition=right;points=[];portConstraint=eastwest;strokeColor=inherit;" parent="nYZzCSbYtuYDyp5w1-ZW-39" vertex="1">
                    <mxGeometry y="26" width="193" height="8" as="geometry"/>
                </mxCell>
                <mxCell id="nYZzCSbYtuYDyp5w1-ZW-41" value="" style="endArrow=block;startArrow=none;endFill=0;startFill=0;endSize=8;html=1;verticalAlign=bottom;dashed=1;labelBackgroundColor=none;" parent="kYm9fkxfaUYCWXl--_9i-1" source="nYZzCSbYtuYDyp5w1-ZW-39" target="nYZzCSbYtuYDyp5w1-ZW-38" edge="1">
                    <mxGeometry width="160" relative="1" as="geometry">
                        <mxPoint x="-131.52506172839514" y="780" as="sourcePoint"/>
                        <mxPoint x="-131.28432098765427" y="741" as="targetPoint"/>
                    </mxGeometry>
                </mxCell>
                <mxCell id="nYZzCSbYtuYDyp5w1-ZW-42" value="RemovePersonVisitor" style="swimlane;fontStyle=1;align=center;verticalAlign=top;childLayout=stackLayout;horizontal=1;startSize=26;horizontalStack=0;resizeParent=1;resizeParentMax=0;resizeLast=0;collapsible=1;marginBottom=0;" parent="kYm9fkxfaUYCWXl--_9i-1" vertex="1">
                    <mxGeometry x="330" y="1370" width="193" height="34" as="geometry"/>
                </mxCell>
                <mxCell id="nYZzCSbYtuYDyp5w1-ZW-43" value="" style="line;strokeWidth=1;fillColor=none;align=left;verticalAlign=middle;spacingTop=-1;spacingLeft=3;spacingRight=3;rotatable=0;labelPosition=right;points=[];portConstraint=eastwest;strokeColor=inherit;" parent="nYZzCSbYtuYDyp5w1-ZW-42" vertex="1">
                    <mxGeometry y="26" width="193" height="8" as="geometry"/>
                </mxCell>
                <mxCell id="nYZzCSbYtuYDyp5w1-ZW-44" value="" style="endArrow=block;startArrow=none;endFill=0;startFill=0;endSize=8;html=1;verticalAlign=bottom;dashed=1;labelBackgroundColor=none;" parent="kYm9fkxfaUYCWXl--_9i-1" source="nYZzCSbYtuYDyp5w1-ZW-42" target="nYZzCSbYtuYDyp5w1-ZW-38" edge="1">
                    <mxGeometry width="160" relative="1" as="geometry">
                        <mxPoint x="343.8699999999999" y="1350.8052988293284" as="sourcePoint"/>
                        <mxPoint x="301.1200000000001" y="1352.491065927295" as="targetPoint"/>
                    </mxGeometry>
                </mxCell>
                <mxCell id="nYZzCSbYtuYDyp5w1-ZW-47" value="" style="endArrow=classic;startArrow=diamondThin;endFill=1;startFill=0;html=1;verticalAlign=bottom;labelBackgroundColor=none;strokeWidth=1;startSize=8;endSize=8;" parent="kYm9fkxfaUYCWXl--_9i-1" source="kYm9fkxfaUYCWXl--_9i-9" target="kYm9fkxfaUYCWXl--_9i-6" edge="1">
                    <mxGeometry width="160" relative="1" as="geometry">
                        <mxPoint x="740" y="663" as="sourcePoint"/>
                        <mxPoint x="900" y="663" as="targetPoint"/>
                    </mxGeometry>
                </mxCell>
                <mxCell id="nYZzCSbYtuYDyp5w1-ZW-48" value="" style="endArrow=classic;startArrow=diamondThin;endFill=1;startFill=1;html=1;verticalAlign=bottom;labelBackgroundColor=none;strokeWidth=1;startSize=8;endSize=8;" parent="kYm9fkxfaUYCWXl--_9i-1" source="oKoLSB4H9xfvWjCsK6OB-46" target="nYZzCSbYtuYDyp5w1-ZW-0" edge="1">
                    <mxGeometry width="160" relative="1" as="geometry">
                        <mxPoint x="250" y="889.5517241379312" as="sourcePoint"/>
                        <mxPoint x="300" y="886.1034482758621" as="targetPoint"/>
                    </mxGeometry>
                </mxCell>
                <mxCell id="nYZzCSbYtuYDyp5w1-ZW-49" value="" style="endArrow=classic;startArrow=diamondThin;endFill=1;startFill=1;html=1;verticalAlign=bottom;labelBackgroundColor=none;strokeWidth=1;startSize=8;endSize=8;" parent="kYm9fkxfaUYCWXl--_9i-1" source="oKoLSB4H9xfvWjCsK6OB-43" target="oKoLSB4H9xfvWjCsK6OB-68" edge="1">
                    <mxGeometry width="160" relative="1" as="geometry">
                        <mxPoint x="411.90427215189857" y="686" as="sourcePoint"/>
                        <mxPoint x="220.1922468354428" y="802" as="targetPoint"/>
                    </mxGeometry>
                </mxCell>
                <mxCell id="hnPsUiVtqgcNTeOrOCNK-0" value="SaveLoadDataUsecase" style="swimlane;fontStyle=1;align=center;verticalAlign=top;childLayout=stackLayout;horizontal=1;startSize=26;horizontalStack=0;resizeParent=1;resizeParentMax=0;resizeLast=0;collapsible=1;marginBottom=0;" parent="kYm9fkxfaUYCWXl--_9i-1" vertex="1">
                    <mxGeometry x="900" y="533" width="170" height="34" as="geometry"/>
                </mxCell>
                <mxCell id="hnPsUiVtqgcNTeOrOCNK-1" value="" style="line;strokeWidth=1;fillColor=none;align=left;verticalAlign=middle;spacingTop=-1;spacingLeft=3;spacingRight=3;rotatable=0;labelPosition=right;points=[];portConstraint=eastwest;strokeColor=inherit;" parent="hnPsUiVtqgcNTeOrOCNK-0" vertex="1">
                    <mxGeometry y="26" width="170" height="8" as="geometry"/>
                </mxCell>
                <mxCell id="hnPsUiVtqgcNTeOrOCNK-5" value="«interface»&lt;br&gt;&lt;b&gt;IDataStore&lt;br&gt;&lt;/b&gt;" style="html=1;" parent="kYm9fkxfaUYCWXl--_9i-1" vertex="1">
                    <mxGeometry x="880" y="447" width="190" height="50" as="geometry"/>
                </mxCell>
                <mxCell id="hnPsUiVtqgcNTeOrOCNK-6" value="" style="endArrow=block;startArrow=none;endFill=0;startFill=0;endSize=8;html=1;verticalAlign=bottom;dashed=1;labelBackgroundColor=none;" parent="kYm9fkxfaUYCWXl--_9i-1" source="hnPsUiVtqgcNTeOrOCNK-3" target="hnPsUiVtqgcNTeOrOCNK-5" edge="1">
                    <mxGeometry width="160" relative="1" as="geometry">
                        <mxPoint x="823.75" y="688" as="sourcePoint"/>
                        <mxPoint x="801.25" y="688" as="targetPoint"/>
                    </mxGeometry>
                </mxCell>
                <mxCell id="hnPsUiVtqgcNTeOrOCNK-7" value="" style="endArrow=classic;startArrow=diamondThin;endFill=1;startFill=1;html=1;verticalAlign=bottom;labelBackgroundColor=none;strokeWidth=1;startSize=8;endSize=8;" parent="kYm9fkxfaUYCWXl--_9i-1" source="hnPsUiVtqgcNTeOrOCNK-0" target="hnPsUiVtqgcNTeOrOCNK-5" edge="1">
                    <mxGeometry width="160" relative="1" as="geometry">
                        <mxPoint x="867.78125" y="768" as="sourcePoint"/>
                        <mxPoint x="667.9613970588234" y="930" as="targetPoint"/>
                    </mxGeometry>
                </mxCell>
                <mxCell id="KwlK9dAusp6_GMZQ8fIn-8" style="edgeStyle=none;html=1;dashed=1;" edge="1" parent="kYm9fkxfaUYCWXl--_9i-1" source="KwlK9dAusp6_GMZQ8fIn-0" target="KwlK9dAusp6_GMZQ8fIn-3">
                    <mxGeometry relative="1" as="geometry"/>
                </mxCell>
                <mxCell id="KwlK9dAusp6_GMZQ8fIn-9" value="&amp;lt;&amp;lt;create&amp;gt;&amp;gt;" style="edgeLabel;html=1;align=center;verticalAlign=middle;resizable=0;points=[];" vertex="1" connectable="0" parent="KwlK9dAusp6_GMZQ8fIn-8">
                    <mxGeometry x="0.4427" y="3" relative="1" as="geometry">
                        <mxPoint x="-31" y="-8" as="offset"/>
                    </mxGeometry>
                </mxCell>
                <mxCell id="KwlK9dAusp6_GMZQ8fIn-18" style="edgeStyle=none;html=1;dashed=1;endArrow=classic;endFill=1;" edge="1" parent="kYm9fkxfaUYCWXl--_9i-1" source="KwlK9dAusp6_GMZQ8fIn-0" target="oKoLSB4H9xfvWjCsK6OB-40">
                    <mxGeometry relative="1" as="geometry">
                        <Array as="points">
                            <mxPoint x="90" y="380"/>
                            <mxPoint x="90" y="650"/>
                        </Array>
                    </mxGeometry>
                </mxCell>
                <mxCell id="KwlK9dAusp6_GMZQ8fIn-19" value="&amp;lt;&amp;lt;create&amp;gt;&amp;gt;" style="edgeLabel;html=1;align=center;verticalAlign=middle;resizable=0;points=[];" vertex="1" connectable="0" parent="KwlK9dAusp6_GMZQ8fIn-18">
                    <mxGeometry x="0.639" y="-1" relative="1" as="geometry">
                        <mxPoint as="offset"/>
                    </mxGeometry>
                </mxCell>
                <mxCell id="KwlK9dAusp6_GMZQ8fIn-0" value="DIコンテナ" style="html=1;dropTarget=0;verticalAlign=top;fillColor=#f5f5f5;fontColor=#333333;strokeColor=#666666;" vertex="1" parent="kYm9fkxfaUYCWXl--_9i-1">
                    <mxGeometry x="195" y="360" width="121.26" height="30.41" as="geometry"/>
                </mxCell>
                <mxCell id="KwlK9dAusp6_GMZQ8fIn-1" value="" style="shape=module;jettyWidth=8;jettyHeight=4;verticalAlign=top;" vertex="1" parent="KwlK9dAusp6_GMZQ8fIn-0">
                    <mxGeometry x="1" width="20" height="20" relative="1" as="geometry">
                        <mxPoint x="-27" y="7" as="offset"/>
                    </mxGeometry>
                </mxCell>
                <mxCell id="KwlK9dAusp6_GMZQ8fIn-3" value="«interface»&lt;br&gt;&lt;b&gt;I&lt;/b&gt;&lt;span style=&quot;font-weight: 700;&quot;&gt;GetOrganizationStructureUsecase&lt;/span&gt;" style="html=1;" vertex="1" parent="kYm9fkxfaUYCWXl--_9i-1">
                    <mxGeometry x="310" y="470" width="216" height="40.5" as="geometry"/>
                </mxCell>
                <mxCell id="KwlK9dAusp6_GMZQ8fIn-5" value="«interface»&lt;br&gt;&lt;b&gt;I&lt;/b&gt;&lt;span style=&quot;font-weight: 700;&quot;&gt;CheckProbremsUsecase&lt;/span&gt;" style="html=1;" vertex="1" parent="kYm9fkxfaUYCWXl--_9i-1">
                    <mxGeometry x="515.12" y="526.5" width="163.13" height="40.5" as="geometry"/>
                </mxCell>
                <mxCell id="KwlK9dAusp6_GMZQ8fIn-6" value="«interface»&lt;br&gt;&lt;b&gt;I&lt;/b&gt;&lt;span style=&quot;font-weight: 700;&quot;&gt;AddPersonUsecase&lt;/span&gt;" style="html=1;" vertex="1" parent="kYm9fkxfaUYCWXl--_9i-1">
                    <mxGeometry x="698.44" y="486" width="133.13" height="40.5" as="geometry"/>
                </mxCell>
                <mxCell id="KwlK9dAusp6_GMZQ8fIn-10" style="edgeStyle=none;html=1;dashed=1;" edge="1" parent="kYm9fkxfaUYCWXl--_9i-1" source="KwlK9dAusp6_GMZQ8fIn-0" target="KwlK9dAusp6_GMZQ8fIn-5">
                    <mxGeometry relative="1" as="geometry">
                        <mxPoint x="489.28859337137646" y="419.5866666666666" as="sourcePoint"/>
                        <mxPoint x="443.3860987946241" y="480" as="targetPoint"/>
                    </mxGeometry>
                </mxCell>
                <mxCell id="KwlK9dAusp6_GMZQ8fIn-11" value="&amp;lt;&amp;lt;create&amp;gt;&amp;gt;" style="edgeLabel;html=1;align=center;verticalAlign=middle;resizable=0;points=[];" vertex="1" connectable="0" parent="KwlK9dAusp6_GMZQ8fIn-10">
                    <mxGeometry x="0.4427" y="3" relative="1" as="geometry">
                        <mxPoint x="-57" y="-45" as="offset"/>
                    </mxGeometry>
                </mxCell>
                <mxCell id="KwlK9dAusp6_GMZQ8fIn-12" style="edgeStyle=none;html=1;dashed=1;" edge="1" parent="kYm9fkxfaUYCWXl--_9i-1" source="KwlK9dAusp6_GMZQ8fIn-0" target="KwlK9dAusp6_GMZQ8fIn-6">
                    <mxGeometry relative="1" as="geometry">
                        <mxPoint x="523.2127282950296" y="419.5866666666666" as="sourcePoint"/>
                        <mxPoint x="594.3616373275729" y="536.5" as="targetPoint"/>
                    </mxGeometry>
                </mxCell>
                <mxCell id="KwlK9dAusp6_GMZQ8fIn-13" value="&amp;lt;&amp;lt;create&amp;gt;&amp;gt;" style="edgeLabel;html=1;align=center;verticalAlign=middle;resizable=0;points=[];" vertex="1" connectable="0" parent="KwlK9dAusp6_GMZQ8fIn-12">
                    <mxGeometry x="0.4427" y="3" relative="1" as="geometry">
                        <mxPoint x="-212" y="-68" as="offset"/>
                    </mxGeometry>
                </mxCell>
            </root>
        </mxGraphModel>
    </diagram>
</mxfile>